/* XPM */
static char * black_xpm[] = {
"40 40 23 1",
" 	c #010101",
".	c #020202",
"+	c #040404",
"@	c #060606",
"#	c #0A0A0A",
"$	c #030303",
"%	c #0D0D0D",
"&	c #050505",
"*	c #070707",
"=	c #080808",
"-	c #0C0C0C",
";	c #101010",
">	c #111111",
",	c #0B0B0B",
"'	c #0E0E0E",
")	c #090909",
"!	c #121212",
"~	c #131313",
"{	c #000000",
"]	c #0F0F0F",
"^	c #171717",
"/	c #151515",
"(	c #141414",
"           .....+@+.                  +#",
"                 $%&$...             .$#",
"                   .$... .. $ .       .*",
"                        .=@=-#$........+",
"                         &;>;-@$$+$ .++@",
"                         +,''#&+&%,@&+**",
"                         .+),&. .-!,@@)=",
"                         . @)$  .&~%$.@$",
"                         . +@.  ..)'$$+.",
"                         ...    ..+)*@+.",
"                        .&&     ..$&#&..",
"           ..       .++..*).     .$+,$..",
"        . .++.....$*@*=@+@-+.    ..$)@..",
"       .$@**@+&@+@+$.. .$@)+.     { +@+ ",
"..       $&&&&*)$  {    .+*+      { .&+.",
"+&..        ..          .$)=        .)..",
"$$..                   ..$))        $@..",
"....                  .+*@))        .*=$",
"                      .#'%,=        .$'-",
"                      .-'-=)+     ....=;",
"                .+++++&,#@+@*.    ....$)",
"               .+*)--#),*.$+=@....  ...$",
"               .@##,=++....$+$..$$  ....",
"               .)-,@.{{{   ..  .&*$.....",
"       .$       #%#            .@=+$....",
"       .....    +,%=$...        @)@&$...",
"        . ..    .*,-=$         .&==*@$ .",
" .++    ....    .&,-,@$&${     .$@==*+..",
".$#%#$...$$.    .&,--%#-* .+&&..$&*))*$.",
"&@)#,=+$$$$$.{ ..@%%-,#%) +=##===@&*)*$ ",
"**@**,,*&+++$ @)$-]%)**)+ ...++++$.&*@+.",
"@+..+#,=@&&@&$=@ $#'=$+@.          ..+&+",
".....&=*=*@@=#=. . &)++*$           .$.&",
" ...  $@#-,-%')....$@@@@.           .   ",
"....... +]'%];@.....+**.            .   ",
"    .....@*+)>*$$..$@#)$=+              ",
"  . ......$$+;,@&+ .@-'#^'              ",
" ++&&$  +@*@&##=)@. *']~/>. ....        ",
" $+@=*#'%%],@@&=%,&+&);~('. ....        ",
" .$+=##,''%-,*,](]+$ +),*&..            "};
