/* XPM */
static char * coletavell_xpm[] = {
"40 40 18 1",
" 	c #040303",
".	c #FFFEE1",
"+	c #FFF4BC",
"@	c #FEEEA8",
"#	c #E6E6E6",
"$	c #FFEA95",
"%	c #E9C475",
"&	c #FFDB54",
"*	c #FFD042",
"=	c #FFFACE",
"-	c #FFDE6D",
";	c #FDC434",
">	c #F5B52B",
",	c #E5B04D",
"'	c #FEE483",
")	c #ECA728",
"!	c #E29A27",
"~	c #DA8E21",
"                                        ",
"                                        ",
"                                        ",
"                                        ",
"                                        ",
"                                        ",
"                 .++@+++#               ",
"               +$%%&&&**&$=             ",
"            #+$%&-&&-&*&;>,$            ",
"           #@%--&'-&-;*;;**,@           ",
"           $,*-'**;;;;;>;&,>,@          ",
"          $,-%***'$$$'-*>>,$',$         ",
"         @,;--;'@$''$&**;>)%%!,         ",
"        =%*&;;$$'@@+++-;;>)!!,~,        ",
"        '>;*;%'-$+++++'>>>)!!;!~%       ",
"        ,>>),'&*@+++++%%'%,!~~~!,#      ",
"       +),*)%**;$=+@@$%-&&-!~!)~~+      ",
"       @),,!%;*'%%@$'%-*;>,~~~~!~@      ",
"       @,,,!-*+@@'%%-,;>)),,~!!)!%      ",
"       @,'@~%%@'--&*%,>!!!,,~!!!>%      ",
"       +,,!~%%'&**;,,,,,,,%!!>>>>%      ",
"       +,,%!,)&*;>,,!!,,,%)));;;;@      ",
"       +,,*),!%>),,,,,,%%>>;>;;;;+      ",
"       #,!!!,,!,%,!,,%-'$;;;**&&,       ",
"        %!)>),~~~~,%-''$'**,-)%%%       ",
"         )))>>!~!),$$$$'*&,''%$,#       ",
"         %!>)!;>)>;;%&*&&%$%%@%%        ",
"          ,>;)**&**;**&%$$@$$@,         ",
"           ,,&&;--'$$@@@@,'=@,          ",
"            %&''$,%$%@%!=@+$%#          ",
"             $*'@@++%++@=@%@#           ",
"               %,%%@@@$%%$              ",
"                ##@@@%@                 ",
"                                        ",
"                                        ",
"                                        ",
"                                        ",
"                                        ",
"                                        ",
"                                        "};
