/* XPM */
static char * exit_xpm[] = {
"40 40 460 2",
"  	c #8FC742",
". 	c #90C741",
"+ 	c #91C741",
"@ 	c #8FC641",
"# 	c #8EC641",
"$ 	c #90C642",
"% 	c #91C742",
"& 	c #90C742",
"* 	c #8FC642",
"= 	c #8EC642",
"- 	c #90C640",
"; 	c #92C641",
"> 	c #93C645",
", 	c #93C74C",
"' 	c #94C753",
") 	c #97C959",
"! 	c #9DCB60",
"~ 	c #A3CE65",
"{ 	c #A7CF67",
"] 	c #A7CF65",
"^ 	c #A3CD60",
"/ 	c #9ECB5A",
"( 	c #9BCA56",
"_ 	c #9ACA54",
": 	c #99CA53",
"< 	c #98CA51",
"[ 	c #97C94D",
"} 	c #96C948",
"| 	c #95C943",
"1 	c #93C841",
"2 	c #8FC741",
"3 	c #90C641",
"4 	c #92C743",
"5 	c #90C743",
"6 	c #8DC642",
"7 	c #91C640",
"8 	c #93C741",
"9 	c #95C846",
"0 	c #96C84E",
"a 	c #98C957",
"b 	c #9CCB5F",
"c 	c #A2CD66",
"d 	c #AAD06D",
"e 	c #ADD26E",
"f 	c #AAD06A",
"g 	c #A2CD5F",
"h 	c #99CA52",
"i 	c #93C849",
"j 	c #92C747",
"k 	c #93C847",
"l 	c #94C845",
"m 	c #96C943",
"n 	c #96C942",
"o 	c #95C941",
"p 	c #92C841",
"q 	c #8DC541",
"r 	c #8EC541",
"s 	c #8FC643",
"t 	c #8DC542",
"u 	c #8CC542",
"v 	c #95C845",
"w 	c #96C84D",
"x 	c #97C955",
"y 	c #9BCB5C",
"z 	c #A2CD65",
"A 	c #A8D06B",
"B 	c #ABD16D",
"C 	c #A8CF68",
"D 	c #9FCC5C",
"E 	c #95C94D",
"F 	c #90C643",
"G 	c #8EC640",
"H 	c #93C842",
"I 	c #94C941",
"J 	c #8EC542",
"K 	c #8CC541",
"L 	c #8DC543",
"M 	c #8CC543",
"N 	c #8CC442",
"O 	c #8DC442",
"P 	c #92C744",
"Q 	c #93C749",
"R 	c #94C84E",
"S 	c #9CCB5C",
"T 	c #A1CD63",
"U 	c #A1CD61",
"V 	c #9ACA56",
"W 	c #93C84A",
"X 	c #8CC53F",
"Y 	c #8CC540",
"Z 	c #8DC641",
"` 	c #8CC443",
" .	c #8BC543",
"..	c #8AC443",
"+.	c #8BC542",
"@.	c #8CC642",
"#.	c #8BC443",
"$.	c #8FC644",
"%.	c #90C747",
"&.	c #92C74B",
"*.	c #95C852",
"=.	c #99C958",
"-.	c #9BCA5B",
";.	c #99CA58",
">.	c #96C951",
",.	c #91C748",
"'.	c #8BC541",
").	c #8AC442",
"!.	c #8AC542",
"~.	c #8AC343",
"{.	c #8AC543",
"].	c #89C443",
"^.	c #8FC645",
"/.	c #92C74A",
"(.	c #94C850",
"_.	c #96C853",
":.	c #95C851",
"<.	c #93C84C",
"[.	c #90C746",
"}.	c #8EC643",
"|.	c #8CC641",
"1.	c #89C442",
"2.	c #89C542",
"3.	c #8BC343",
"4.	c #8CC643",
"5.	c #8EC742",
"6.	c #91C745",
"7.	c #95C84C",
"8.	c #94C84B",
"9.	c #92C848",
"0.	c #90C744",
"a.	c #91C842",
"b.	c #91C843",
"c.	c #91C743",
"d.	c #94C846",
"e.	c #93C845",
"f.	c #8DC643",
"g.	c #92C843",
"h.	c #93C742",
"i.	c #94C843",
"j.	c #93C843",
"k.	c #92C842",
"l.	c #8FC743",
"m.	c #8FC744",
"n.	c #8EC744",
"o.	c #8DC644",
"p.	c #90C842",
"q.	c #91C846",
"r.	c #92C847",
"s.	c #8FC745",
"t.	c #8EC644",
"u.	c #8CC544",
"v.	c #91C841",
"w.	c #8BC442",
"x.	c #92C846",
"y.	c #90C846",
"z.	c #87C342",
"A.	c #86C342",
"B.	c #88C442",
"C.	c #87C343",
"D.	c #88C343",
"E.	c #91C746",
"F.	c #93C848",
"G.	c #93C84B",
"H.	c #94C84C",
"I.	c #91C845",
"J.	c #85C243",
"K.	c #87C344",
"L.	c #8CC545",
"M.	c #92C84C",
"N.	c #92C84B",
"O.	c #93C949",
"P.	c #94C946",
"Q.	c #93C844",
"R.	c #86C243",
"S.	c #89C345",
"T.	c #8FC547",
"U.	c #94C849",
"V.	c #96C84B",
"W.	c #8FC74B",
"X.	c #8EC64B",
"Y.	c #90C749",
"Z.	c #94C947",
"`.	c #96CA45",
" +	c #97CA43",
".+	c #95C942",
"++	c #92C741",
"@+	c #8AC444",
"#+	c #89C444",
"$+	c #88C342",
"%+	c #87C244",
"&+	c #8BC446",
"*+	c #92C649",
"=+	c #97C84C",
"-+	c #8CC64B",
";+	c #8AC549",
">+	c #8EC747",
",+	c #94C945",
"'+	c #98CA44",
")+	c #99CA42",
"!+	c #97C941",
"~+	c #95C841",
"{+	c #92C742",
"]+	c #89C344",
"^+	c #89C346",
"/+	c #8DC448",
"(+	c #93C74A",
"_+	c #97C94C",
":+	c #91C74B",
"<+	c #8BC549",
"[+	c #88C547",
"}+	c #8CC646",
"|+	c #98CA43",
"1+	c #98CA42",
"2+	c #96C941",
"3+	c #91C740",
"4+	c #92C740",
"5+	c #93C740",
"6+	c #94C842",
"7+	c #8DC545",
"8+	c #8CC447",
"9+	c #8CC448",
"0+	c #8EC549",
"a+	c #95C84A",
"b+	c #94C84A",
"c+	c #90C748",
"d+	c #8AC547",
"e+	c #88C546",
"f+	c #8CC645",
"g+	c #95C842",
"h+	c #8DC53F",
"i+	c #8EC63F",
"j+	c #95C840",
"k+	c #90C645",
"l+	c #8EC647",
"m+	c #8EC649",
"n+	c #8FC64B",
"o+	c #91C749",
"p+	c #8EC645",
"q+	c #8BC545",
"r+	c #8AC544",
"s+	c #8CC644",
"t+	c #87C341",
"u+	c #89C441",
"v+	c #90C745",
"w+	c #93C840",
"x+	c #96C841",
"y+	c #8FC648",
"z+	c #8FC64A",
"A+	c #8FC74A",
"B+	c #8EC743",
"C+	c #87C345",
"D+	c #88C346",
"E+	c #8CC549",
"F+	c #95C94F",
"G+	c #8DC742",
"H+	c #91C642",
"I+	c #8FC646",
"J+	c #8FC748",
"K+	c #8DC744",
"L+	c #8BC547",
"M+	c #8CC54B",
"N+	c #90C650",
"O+	c #96C958",
"P+	c #9DCC5E",
"Q+	c #A1CD62",
"R+	c #8DC441",
"S+	c #8FC541",
"T+	c #8FC640",
"U+	c #8CC744",
"V+	c #8DC747",
"W+	c #93C851",
"X+	c #9ACA5A",
"Y+	c #A3CE66",
"Z+	c #AAD16F",
"`+	c #ADD272",
" @	c #8CC441",
".@	c #8AC541",
"+@	c #8BC642",
"@@	c #8BC643",
"#@	c #89C543",
"$@	c #87C443",
"%@	c #85C343",
"&@	c #85C342",
"*@	c #94C841",
"=@	c #8CC745",
"-@	c #8DC748",
";@	c #92C84D",
">@	c #98CA54",
",@	c #A0CD5F",
"'@	c #AAD16D",
")@	c #B2D478",
"!@	c #B4D47A",
"~@	c #8BC641",
"{@	c #8AC644",
"]@	c #8CC747",
"^@	c #91C84C",
"/@	c #98CA52",
"(@	c #A9D069",
"_@	c #B0D373",
":@	c #B1D376",
"<@	c #8BC441",
"[@	c #88C543",
"}@	c #8AC441",
"|@	c #89C544",
"1@	c #8BC645",
"2@	c #94C84D",
"3@	c #A1CD5D",
"4@	c #A7CE64",
"5@	c #A7CF66",
"6@	c #89C342",
"7@	c #88C443",
"8@	c #98C94D",
"9@	c #9BCA51",
"0@	c #9BC952",
"a@	c #8DC646",
"b@	c #8FC647",
"c@	c #86C443",
"d@	c #84C343",
"e@	c #91C643",
"f@	c #92C644",
"g@	c #8EC646",
"h@	c #90C74B",
"i@	c #92C84E",
"j@	c #92C74D",
"k@	c #95C953",
"l@	c #96CA57",
"m@	c #96C954",
"n@	c #93C84E",
"o@	c #94C840",
"p@	c #87C442",
"q@	c #99CB57",
"r@	c #9CCC5E",
"s@	c #9DCC61",
"t@	c #9BCB5D",
"u@	c #97C954",
"v@	c #86C444",
"w@	c #85C344",
"x@	c #A6D06A",
"y@	c #A8D06E",
"z@	c #A8D06F",
"A@	c #A3CE69",
"B@	c #9BCA5C",
"C@	c #93C74E",
"D@	c #8FC544",
"E@	c #91C641",
"F@	c #B3D57A",
"G@	c #B4D57C",
"H@	c #B1D47A",
"I@	c #ABD072",
"J@	c #A0CB64",
"K@	c #95C753",
"L@	c #8EC447",
"M@	c #B9D782",
"N@	c #B9D783",
"O@	c #B6D580",
"P@	c #AFD278",
"Q@	c #A4CC6A",
"R@	c #98C75A",
"S@	c #90C44E",
"T@	c #8BC44A",
"U@	c #89C449",
"V@	c #89C548",
"W@	c #8AC546",
"X@	c #86C341",
"Y@	c #88C441",
"Z@	c #86C343",
"`@	c #B4D47D",
" #	c #B1D37B",
".#	c #ACD075",
"+#	c #A6CD6C",
"@#	c #9FCA62",
"##	c #99C85A",
"$#	c #94C756",
"%#	c #91C754",
"&#	c #8EC751",
"*#	c #8EC74D",
"=#	c #8EC748",
"-#	c #A7CF6D",
";#	c #A6CE6E",
">#	c #A5CE6E",
",#	c #A5CD6D",
"'#	c #A6CE6C",
")#	c #A7CD6A",
"!#	c #A5CD68",
"~#	c #A1CC65",
"{#	c #9DCB61",
"]#	c #98CA5C",
"^#	c #95C955",
"/#	c #99CA5A",
"(#	c #97C95B",
"_#	c #97C85E",
":#	c #9DCA64",
"<#	c #A5CD6A",
"[#	c #ACD06F",
"}#	c #AED171",
"|#	c #ABD16E",
"1#	c #A6CF6A",
"2#	c #9BCB5B",
"3#	c #95C950",
"4#	c #91C847",
"5#	c #86C344",
"6#	c #84C344",
"7#	c #90C653",
"8#	c #91C657",
"9#	c #98C95E",
"0#	c #A3CD67",
"a#	c #ACD06E",
"b#	c #AFD270",
"c#	c #ADD16E",
"d#	c #A9D06A",
"e#	c #A4CE63",
"f#	c #9DCC5B",
"g#	c #96CA50",
"h#	c #96C957",
"i#	c #92C857",
"j#	c #91C758",
"k#	c #96C85C",
"l#	c #9DCB62",
"m#	c #A4CE66",
"n#	c #A8CF67",
"o#	c #A8CF65",
"p#	c #A6CF61",
"q#	c #A2CD5C",
"r#	c #9DCB55",
"s#	c #96C94D",
"t#	c #9CCD60",
"u#	c #98CA5F",
"v#	c #96C95E",
"w#	c #96C95D",
"x#	c #98C95C",
"y#	c #9DCB59",
"z#	c #9FCC57",
"A#	c #9FCC54",
"B#	c #9ECC51",
"C#	c #9ACA4D",
"D#	c #94C948",
"E#	c #87C544",
"F#	c #85C444",
"G#	c #A0CE65",
"H#	c #9ECD66",
"I#	c #9CCB64",
"J#	c #99CA60",
"K#	c #96C85A",
"L#	c #94C853",
"M#	c #97C94B",
"N#	c #99CA49",
"O#	c #9ACA48",
"P#	c #97C946",
"Q#	c #8AC643",
"R#	c #83C445",
"S#	c #A3CF65",
"T#	c #A5CF69",
"U#	c #A5CE6A",
"V#	c #A1CC66",
"W#	c #9AC95E",
"X#	c #92C755",
"Y#	c #8FC64E",
"Z#	c #95C944",
"`#	c #87C444",
"  . + . @ # # $ % % & * = # - ; > , ' ) ! ~ { ] ^ / ( _ : < [ } | 1 + 2 # # @ 3 ",
"2 . + . @ # # $ % 4 5 = 6 # 7 8 9 0 a b c d e f g h i j j k l m n o p . # # # @ ",
"@     * # q r * & 5 s t u q - 8 v w x y z A B C D E F G # * % H I 1 p 2 # t t J ",
"= 6 u u u K q 6 = = L M N O r 3 P Q R x S T ~ U V W = X Y K Z # 2 .   = = t N ` ",
"6  .....+.K K K @.u u #.#.N t J s $.%.&.*.=.-.;.>.,.= K '.).).!.+.@.6 6 t M #.~.",
"@.{.].].+.u Z 6 @.@.u ` ` ` u t t Z = ^./.(._.:.<.[.}.|.+.).1.1.2.!.+.u u ` ` 3.",
"6 4. . .6 =       5.}.L L t t 6 6 Z # * 6.Q 7.8.9.0.5.6 u +.+.!.{.{.{. . .M L L ",
"5.6 6 =   & % a.a.b.5   = = = = = # # @ c.l 9 d.e.5   = = 6 f.f.f.4.{.....M }.* ",
"          & & a.g.g.b.&           2 # @ % h.i.j.k.&   l.l.m.m.m.n.o. .....t * % ",
"  & &   = 6 6   b.g.a.p.& & & & & & 2 @ @ @ 3 3     5 0.q.r.q.q.s.t.u. .+.6   % ",
"2 . + 2 u 1.1.u 5.& p.& & & % v.v..   = 6 +.w.+.t s 0.x.i W i 9.y.s.o.M u =   & ",
"@ . + # !.z.A.1.@.        & % p p v.& = +.B.C.D. .$.E.F.G.H.G.i r.I.l.= # #   & ",
"q @ & = ).z.z.1.@.5.5.f.f.= & % p + & = !.z.J.K.L.E.F.W M.M.N.O.P.Q.g.% . . & & ",
"u t = 6 +.1.1.+.6 = f. . .M }.& % + 2 6 ).z.R.S.T.U.V.G.W.X.Y.Z.`. +.+1 ++++% % ",
"w.u t t t K Z Z 5.= 4.@+#+@+L $ % . 2 6 w.$+%+&+*+=+[ M.-+;+>+,+'+)+!+~+8 8 ++% ",
"w.+.u 6 = @ . .   5.4.@+#+@+}.% {+% $ = #.]+^+/+(+=+_+:+<+[+}+Q.|+1+2+8 3+3++ % ",
"+.u t = . 4+5+++.   f. . .L % 6+~+H % s 7+8+9+0+/.a+b+c+d+e+f+b.| g++ r Y h+i+& ",
"q Z Z @ 4+j+j+1 +   = f.f.& H 2+!+g+4 k+l+m+X.n+o+j E.p+q+r+s+5 g.& u $+t+u+Z v+",
"Z Z # 3 5+j+j+w++   5.5.  % 1 x+x+6+4 k+y+z+n+A+c+k+s }.f.4.f.B+l.f.#+C+D+E+:+F+",
"q q r @ 7 5+5++ 2 6 6 G+5.  & + % H+F $.I+J+Y.c+[.F $ . & &   B+K+f+L+M+N+O+P+Q+",
"q q R+r S+- T+# |.|.@.@.@.@.+.!.!.u 6 }.$.^.I+s.0.& + ++1 1 a.5.U+V+W.W+X+Y+Z+`+",
" @R+R+R+q q K K '..@+@+@@@#@$@%@&@B.+.6 = = }.= * . ++1 ~+*@v.5.=@-@;@>@,@'@)@!@",
" @ @ @ @ @K K '.'.~@+@4.4.{.$@%@%@B.+.Z Z K K q # . + ++p +   +@{@]@^@/@D (@_@:@",
"<@<@ @ @K K |.|.|.@.6 f.f.4.{.[@#@!.K Z K }@1.).q @ . @ 6 +.2.[@|@1@J+2@_ 3@4@5@",
"w.u M t t Z # # = 5.l.l.m.n.f.f.f.6 # Z +.$+z.6@u @ # +.7@%@%@$@7@ .o.[.U.8@9@0@",
"u.a@l+b@p+= @ 2 . % % 5 5 l.l.l.    @ # u 1.z.1.u = = !.c@d@%@B.+.u 6 = * e@f@f@",
"g@h@i@j@Y.m.. 3+1 *@H k.5 l.l.    . + . # u ).+.t = = +.7@$@!.Z 3 . @ # Z K K <@",
"M.k@l@m@n@E.% 5+j+2+o k.&     * 2 + +++++ * 6 6 =     6 @.@.* ++j+o@++@ u 2.p@z.",
"q@r@s@t@u@/.e@4+~+2+*@k.&   = # @ . 3+4++ .           5.5.  + *@j+j+++* u 7@v@w@",
"x@y@z@A@B@C@D@S+3 + + &       # # # # # # 2                 & + + E@@ = @.{.7@$@",
"F@G@H@I@J@K@L@#. . .4.6 5.    5.Z '.}@u+.@Z 5.              6 +.).).u 6 6 @. .@@",
"M@N@O@P@Q@R@S@T@U@V@W@s+B+  &   6 .@t+X@Y@+.=             =  .C.%@Z@1.u # = 6 6 ",
"G@`@ #.#+#@###$#%#&#*#=#m.& v.a.  K Y@X@B.+.=             =  .7@Z@C.+.# @ 6 @.@.",
"-#;#>#,#'#)#!#~#{#]#^#;@[.p.p 1 p 2 u !.+.6 * * * * * *   5.6 M  .u * . * u ].7@",
"/#(#_#:#<#[#}#|#1#T 2#3#4#p.p I I p   6 6 = * * * = = *           & {+++$  .5#6#",
"W+7#8#9#0#a#b#c#d#e#f#g#4#& v.1 1 k.&   = * * * J J = =       l.l.& {+8 %  .5#6#",
"h#i#j#k#l#m#n#o#p#q#r#s#[.5.# = *     * = = t t t J = *   5.f.@@@@4.  {+% 6 ].$@",
"t#u#v#w#x#-.y#z#A#B#C#D#m.@.!.2.!.+.6 # 6 u +.u t Z # *   5.@@E#F#E#4.& + * 6 u ",
"G#H#I#J#K#L#R M#N#O#P#Q.s +.B.p@p@1.K Z q u +.+.K Z # 2   6 Q#F#R#F#{.* + .   = ",
"S#T#U#V#W#X#Y#o+d.Z#i.% = @.2.B.B.!.q # # K '.K q # # 2   5.@@E#F#`#{.= . . 2 # "};
