/* XPM */
static char * parede_xpm[] = {
"40 40 54 1",
" 	c #B6B6B6",
".	c #C3C3C3",
"+	c #BDBDBD",
"@	c #B3B3B3",
"#	c #BEBEBE",
"$	c #CFCFCF",
"%	c #C1C1C1",
"&	c #CCCCCC",
"*	c #C8C8C8",
"=	c #CDCDCD",
"-	c #CECECE",
";	c #CACACA",
">	c #C6C6C6",
",	c #C9C9C9",
"'	c #D0D0D0",
")	c #BFBFBF",
"!	c #C5C5C5",
"~	c #C2C2C2",
"{	c #BBBBBB",
"]	c #CBCBCB",
"^	c #C4C4C4",
"/	c #C0C0C0",
"(	c #BABABA",
"_	c #B5B5B5",
":	c #B7B7B7",
"<	c #C7C7C7",
"[	c #D2D2D2",
"}	c #BCBCBC",
"|	c #AFAFAF",
"1	c #D5D5D5",
"2	c #D1D1D1",
"3	c #B4B4B4",
"4	c #B9B9B9",
"5	c #DEDEDE",
"6	c #B8B8B8",
"7	c #D3D3D3",
"8	c #D6D6D6",
"9	c #D4D4D4",
"0	c #D7D7D7",
"a	c #DADADA",
"b	c #B1B1B1",
"c	c #AEAEAE",
"d	c #B2B2B2",
"e	c #ABABAB",
"f	c #B0B0B0",
"g	c #ACACAC",
"h	c #ADADAD",
"i	c #A4A4A4",
"j	c #AAAAAA",
"k	c #A9A9A9",
"l	c #A6A6A6",
"m	c #A5A5A5",
"n	c #9D9D9D",
"o	c #9F9F9F",
" .+@#$%&*=-;>,'>*,)!~{,=]$>!^%+))%/(@_+:",
")%#~]><[<]=>^]!^).^,~.*^]=-~}^*%(_/ @|%#",
"({>.,1,<$]**-//^)$]+$2$#^&,!^;>=%~{3 {{}",
"43<^&~+>!^^!])-<^**'[5[^.*){+.]'})/46:,)",
")+~!2</.4.+%!/})/ ~2>'2$~;=)%.=7(}/:4{#%",
"!~,$&<!,{))4+@ 36~>)^{*-=,.{#<]2=(/_3^!;",
"()}<[=*4:{#}::(/4.4|+ (!,..)~<*-;3/(.~*]",
"].:^[->*34 {4{.: )4(#4:^<^!^+<&];%))!%#^",
"/^%>[1'.{@(4  %}{;~4#6!]*(~~;=$'8.{6}^*!",
"=~!^&])4<^^}::.~%<;{</%9<^>~,&,!&=+:+.!!",
"7[2'&=2^,<[[~#+{{}.%//%,;%(!]<--]&)}+=>.",
"&'9,'^]-=-9[&-@{(/<~:~&$07.<&208=># +%!+",
";=[/+,,3*;7&8</)_%=${!11a.4.~~=).~bc//~&",
";],d)!+(<-2~].~/(6>'*!1#^)6/.#>^-+::%%.>",
"<;~6;**4d-$/+>*.63/=  ]4)}{!~^>~~.>)+/~@",
">%#}(@} ._*{)/./)(}6{b>^4 ({%})%!!<$+/{|",
",!+}( :%46(6:#~b6<dedf6)]##^&.~]<>--.~#g",
"}(/)~/()/)% f4{c@]ff3} /$^;#>^!,!.^94~#3",
"6{b^4^#~+#*/{4 efb3hec}2[,.{_6:}+/#*.) }",
"63@3 }@}4~/>6_e|ff(_f|@+-:^}{_b 6}~$>/4%",
"_b:6 3d+{%)%#6i/>f^4<_f_,~!__|_}()>}}~44",
"d({+:+6:(+##!4d*~7-/!6+g6( 6}d_%4(+~~)@6",
"|6}}}%%d:)d{:6 =.1.3_}%hdd{}b3)!{{~~.%::",
"e}4(/!}:~/}6366=:=+_((:4_b 4d #: } {_4#}",
"f#+;<*/{>}3446~&*'){/{_. 64(6d34#^6:{^ .",
"d 4**~/}*#g_)d^'+}{/!}#$< 4%>:66)#6b3#@}",
" @ *)%}.!/4({6g-,#/%=,-+# _(^(_}*#!3d/64",
"6f4(}}}/#:d3}(3_*+{]<*# :%6:)3f3;3_6<>( ",
"#}d{4(~%)_|d.,;<7=&;+)#:6/){}46#4_+~{^*~",
"346(}}~)~/@f !2],$-!>3} ~%4+^.(#}(!~<-9]",
" ||+%(}.*/(3^<$&}!<,;6^~,.;.;]%>}!.>>22&",
"{@%>6+(^<{{_{*]*};;+<.#%/+&^,~./~+<=++,<",
"^%,,+~,4_64@{(,&.,;*=*~#{%!#^#%~(*-&^))}",
"/^/<^%){6_+@}{].{/]-'=<){##+/}<)}-;+4# 3",
"/~{+!/{%/%}@3b4 4;=0=<{}+)}}%./!))}_/: #",
"eej~#:>*4 63({:)3/%&+4#4~}}#%.^%!+:#~46#",
"hkd_ ){#~](/~#{+ >~<<!%}})%><*^%!^.~#4}6",
"lm@%6}4( {#{}4 @4 _{}6.<(/#)<!%/<;..^(:3",
"llk@3h: @44{!+46_fd}6@}/@/}%%)*<=]!>~}36",
"nogc_c@3}:((:6:@|3:+_4({#).;#{#~*!//}+}4"};
