/* XPM */
static char * play_xpm[] = {
"40 40 580 2",
"  	c #040303",
". 	c #E0D7C6",
"+ 	c #D8CAAC",
"@ 	c #C1AA6D",
"# 	c #A78C26",
"$ 	c #B2962A",
"% 	c #D7C8A9",
"& 	c #E0D7C5",
"* 	c #E6E4DF",
"= 	c #B59F62",
"- 	c #C1A01D",
"; 	c #C7A51C",
"> 	c #C9A71E",
", 	c #CCA91E",
"' 	c #C7A51D",
") 	c #C1A01E",
"! 	c #B59F61",
"~ 	c #D6D4CD",
"{ 	c #DEDDDC",
"] 	c #A2A2A0",
"^ 	c #B4A479",
"/ 	c #C8A72B",
"( 	c #D3AF22",
"_ 	c #D3B022",
": 	c #D6B223",
"< 	c #DAB525",
"[ 	c #D5B224",
"} 	c #D3AF21",
"| 	c #C8A72A",
"1 	c #B4A378",
"2 	c #A3A3A0",
"3 	c #D8D7D4",
"4 	c #86837A",
"5 	c #9C8F6F",
"6 	c #D8B746",
"7 	c #DDB929",
"8 	c #E1BC2A",
"9 	c #DFBB29",
"0 	c #E7C32F",
"a 	c #EAC530",
"b 	c #E7C330",
"c 	c #DFBB2A",
"d 	c #E1BD29",
"e 	c #D8B844",
"f 	c #9D906D",
"g 	c #B8A882",
"h 	c #BCA452",
"i 	c #DFBE3E",
"j 	c #ECC938",
"k 	c #EDC834",
"l 	c #F1CC36",
"m 	c #ECC835",
"n 	c #F8D43D",
"o 	c #F9D53E",
"p 	c #F0CB36",
"q 	c #E0BE3D",
"r 	c #BDA453",
"s 	c #B8A982",
"t 	c #C4A425",
"u 	c #F0CE3C",
"v 	c #F5D540",
"w 	c #F4D342",
"x 	c #FAD640",
"y 	c #FBDA43",
"z 	c #F4D642",
"A 	c #FEE54C",
"B 	c #FEE64D",
"C 	c #F4D742",
"D 	c #FCDB42",
"E 	c #FAD63F",
"F 	c #F4D441",
"G 	c #C5A426",
"H 	c #CBAC2B",
"I 	c #F7E24D",
"J 	c #F7E153",
"K 	c #F2DB52",
"L 	c #F9E252",
"M 	c #E9D554",
"N 	c #E2D351",
"O 	c #FEF55B",
"P 	c #FFF65C",
"Q 	c #E4D54E",
"R 	c #EED84B",
"S 	c #FEE44A",
"T 	c #F7DD48",
"U 	c #F9E34D",
"V 	c #F5E252",
"W 	c #C9AD39",
"X 	c #C2A930",
"Y 	c #F9F05B",
"Z 	c #F7EB58",
"` 	c #FAEB56",
" .	c #FDEE57",
"..	c #C7BC4B",
"+.	c #C8C754",
"@.	c #FEFD66",
"#.	c #FFFE67",
"$.	c #CAC954",
"%.	c #C7BB48",
"&.	c #FEEF55",
"*.	c #FBEC55",
"=.	c #F7EB57",
"-.	c #F9F05C",
";.	c #C2AA32",
">.	c #B6A432",
",.	c #E8E35E",
"'.	c #DBD658",
").	c #FEF960",
"!.	c #FEF85F",
"~.	c #BAB54C",
"{.	c #D7D863",
"].	c #FEFF70",
"^.	c #DADA64",
"/.	c #B8B34B",
"(.	c #DBD758",
"_.	c #E7E15E",
":.	c #B7A533",
"<.	c #B09E31",
"[.	c #D0CA59",
"}.	c #D4D159",
"|.	c #FEFD65",
"1.	c #FEFE66",
"2.	c #E5E56C",
"3.	c #F3F378",
"4.	c #FEFF77",
"5.	c #FDFE76",
"6.	c #FEFF76",
"7.	c #F4F477",
"8.	c #E5E46D",
"9.	c #FEFE67",
"0.	c #D5D359",
"a.	c #CFC958",
"b.	c #B3A032",
"c.	c #D8CC9A",
"d.	c #CBC35A",
"e.	c #E1E064",
"f.	c #FDFE68",
"g.	c #F8F96D",
"h.	c #E4E56F",
"i.	c #CFD067",
"j.	c #C2C260",
"k.	c #BCBC5E",
"l.	c #C2C25F",
"m.	c #D0D067",
"n.	c #E5E570",
"o.	c #FDFD69",
"p.	c #E3E164",
"q.	c #C9C258",
"r.	c #DBCE9F",
"s.	c #F3ED74",
"t.	c #F3F270",
"u.	c #D8D860",
"v.	c #8E8E42",
"w.	c #565630",
"x.	c #333326",
"y.	c #1C1C1F",
"z.	c #1F1F22",
"A.	c #1C1D1F",
"B.	c #343426",
"C.	c #54542D",
"D.	c #8C8D41",
"E.	c #D7D760",
"F.	c #F3F26F",
"G.	c #F2EC75",
"H.	c #DBCF9F",
"I.	c #DACC9E",
"J.	c #FBF26D",
"K.	c #CAC85C",
"L.	c #53522B",
"M.	c #292929",
"N.	c #393939",
"O.	c #404040",
"P.	c #3F3F3F",
"Q.	c #3E3E3E",
"R.	c #373737",
"S.	c #282829",
"T.	c #51512B",
"U.	c #C8C65B",
"V.	c #FAF36D",
"W.	c #D4C59D",
"X.	c #E5CA40",
"Y.	c #857830",
"Z.	c #3D3D3D",
"`.	c #505050",
" +	c #585858",
".+	c #5B5B5B",
"++	c #515151",
"@+	c #4E4E4E",
"#+	c #595959",
"$+	c #545454",
"%+	c #4A4A4A",
"&+	c #3B3B3B",
"*+	c #827630",
"=+	c #E5CA3F",
"-+	c #D5C59D",
";+	c #CBBD9C",
">+	c #BC9D21",
",+	c #736333",
"'+	c #5E5E5E",
")+	c #6D6D6D",
"!+	c #5F5F5F",
"~+	c #6E6E6E",
"{+	c #6B6B6B",
"]+	c #716234",
"^+	c #BD9D21",
"/+	c #CCBD9C",
"(+	c #CDBF9D",
"_+	c #A68D2D",
":+	c #756536",
"<+	c #686868",
"[+	c #4D4D4D",
"}+	c #717171",
"|+	c #6C6C6C",
"1+	c #6A6A6A",
"2+	c #787878",
"3+	c #7A7A7A",
"4+	c #A68D2E",
"5+	c #CDBF9C",
"6+	c #CDBB86",
"7+	c #9A8743",
"8+	c #7D6B37",
"9+	c #646464",
"0+	c #6F6F6F",
"a+	c #757575",
"b+	c #797979",
"c+	c #998641",
"d+	c #CDBB87",
"e+	c #BBB9B2",
"f+	c #D6C26C",
"g+	c #9F892B",
"h+	c #82713C",
"i+	c #7F6B28",
"j+	c #42413E",
"k+	c #565656",
"l+	c #626262",
"m+	c #4D4E4D",
"n+	c #555555",
"o+	c #535353",
"p+	c #4E4D4C",
"q+	c #7E6A27",
"r+	c #81703A",
"s+	c #9D882C",
"t+	c #D6C16C",
"u+	c #A4A29D",
"v+	c #EEECE3",
"w+	c #AEA38A",
"x+	c #7C6F49",
"y+	c #846F20",
"z+	c #423E28",
"A+	c #6A6648",
"B+	c #868050",
"C+	c #9C9943",
"D+	c #AEAF4A",
"E+	c #B8B74F",
"F+	c #AFAF4C",
"G+	c #9C9A42",
"H+	c #7B7533",
"I+	c #5C562A",
"J+	c #423D26",
"K+	c #836D1F",
"L+	c #7D714A",
"M+	c #AFA58B",
"N+	c #EFECE3",
"O+	c #B5AD9B",
"P+	c #796F50",
"Q+	c #A18B32",
"R+	c #CABC4F",
"S+	c #E4D85A",
"T+	c #F3EB66",
"U+	c #FAF76B",
"V+	c #FDFD6F",
"W+	c #FDFD72",
"X+	c #FCFA68",
"Y+	c #F9F260",
"Z+	c #EADD53",
"`+	c #D0BF45",
" @	c #A48D2B",
".@	c #7C7356",
"+@	c #B7AF9C",
"@@	c #C9C4B9",
"#@	c #736B54",
"$@	c #AF9B34",
"%@	c #FBF462",
"&@	c #FEFC70",
"*@	c #FDFD7C",
"=@	c #FEFE83",
"-@	c #FFFF88",
";@	c #FEFF8B",
">@	c #FEFF88",
",@	c #FFFF83",
"'@	c #FEFF7C",
")@	c #FFFD70",
"!@	c #FCF561",
"~@	c #B29E33",
"{@	c #766E56",
"]@	c #DDD9D1",
"^@	c #E3E0DA",
"/@	c #79725E",
"(@	c #A39538",
"_@	c #FBF975",
":@	c #FFFE89",
"<@	c #FEFF94",
"[@	c #FEFD99",
"}@	c #FEFE9D",
"|@	c #FEFE9F",
"1@	c #FEFF9E",
"2@	c #FEFE99",
"3@	c #FFFF89",
"4@	c #FCF976",
"5@	c #A79838",
"6@	c #726955",
"7@	c #766E59",
"8@	c #958937",
"9@	c #FBF982",
"0@	c #FEFF98",
"a@	c #FFFFA2",
"b@	c #FDFCA5",
"c@	c #FEFEAD",
"d@	c #FEFFB0",
"e@	c #FFFFAD",
"f@	c #FDFDA5",
"g@	c #FFFEA3",
"h@	c #FFFF98",
"i@	c #FBF983",
"j@	c #998C39",
"k@	c #7A725C",
"l@	c #E2E0DA",
"m@	c #7B745E",
"n@	c #8D823A",
"o@	c #F8F787",
"p@	c #FEFFA0",
"q@	c #FFFFAC",
"r@	c #FCFBB0",
"s@	c #FEFEBA",
"t@	c #FEFEBB",
"u@	c #FEFFBA",
"v@	c #FDFDAF",
"w@	c #FEFFAC",
"x@	c #FFFFA0",
"y@	c #F9F888",
"z@	c #8F8339",
"A@	c #77705A",
"B@	c #746B51",
"C@	c #857A34",
"D@	c #F5F384",
"E@	c #FFFEB1",
"F@	c #FCFBB5",
"G@	c #FFFFC0",
"H@	c #FEFEC0",
"I@	c #FCFCB4",
"J@	c #FEFEB1",
"K@	c #FEFEA2",
"L@	c #F6F485",
"M@	c #887C37",
"N@	c #756C52",
"O@	c #E3DFDA",
"P@	c #E1DFD9",
"Q@	c #5D5022",
"R@	c #7E742F",
"S@	c #F2EF7E",
"T@	c #FFFE9E",
"U@	c #FFFEAE",
"V@	c #FCFBB3",
"W@	c #FFFFBE",
"X@	c #FEFEAE",
"Y@	c #FFFF9E",
"Z@	c #F2F080",
"`@	c #817531",
" #	c #5D4F22",
".#	c #E2DFD9",
"+#	c #B1AA9D",
"@#	c #695818",
"##	c #796D2B",
"$#	c #EEEA77",
"%#	c #FEFF96",
"&#	c #FCFCAD",
"*#	c #FEFEB5",
"=#	c #FEFFB7",
"-#	c #FFFFB6",
";#	c #FDFDA4",
">#	c #FFFF96",
",#	c #EFEC78",
"'#	c #7B702E",
")#	c #685819",
"!#	c #B1AA9C",
"~#	c #9F8944",
"{#	c #907920",
"]#	c #75692B",
"^#	c #EAE56C",
"/#	c #FFFF8D",
"(#	c #FDFC9A",
"_#	c #FFFEAC",
":#	c #FFFEAD",
"<#	c #FFFEAB",
"[#	c #FEFDA5",
"}#	c #FCFC9A",
"|#	c #FEFE8D",
"1#	c #EBE66E",
"2#	c #766B2C",
"3#	c #8F781F",
"4#	c #A18A44",
"5#	c #DEDCD7",
"6#	c #C2A428",
"7#	c #B39728",
"8#	c #766928",
"9#	c #E5DF62",
"0#	c #FFFF81",
"a#	c #FDFC8C",
"b#	c #FFFE99",
"c#	c #FFFE9F",
"d#	c #FEFEA1",
"e#	c #FFFF9F",
"f#	c #E7E164",
"g#	c #776A29",
"h#	c #B19627",
"i#	c #C4A527",
"j#	c #CBC8C1",
"k#	c #D2CCC0",
"l#	c #DABB30",
"m#	c #D5BF3E",
"n#	c #7B6A1F",
"o#	c #E1D855",
"p#	c #F8F972",
"q#	c #F9F97E",
"r#	c #FBFA8B",
"s#	c #FCFB93",
"t#	c #FBFB94",
"u#	c #FCFC92",
"v#	c #FBFB8B",
"w#	c #F9F97F",
"x#	c #F8F973",
"y#	c #E2D956",
"z#	c #7E6D20",
"A#	c #D4BE3D",
"B#	c #DCBC31",
"C#	c #D3CCC0",
"D#	c #DCD3C1",
"E#	c #E8C838",
"F#	c #EEE155",
"G#	c #958021",
"H#	c #D5C649",
"I#	c #999749",
"J#	c #939353",
"K#	c #A1A161",
"L#	c #A9A969",
"M#	c #A9A96A",
"N#	c #A1A162",
"O#	c #979648",
"P#	c #D6C648",
"Q#	c #968121",
"R#	c #EDE054",
"S#	c #E8C939",
"T#	c #E0D6C1",
"U#	c #EED03E",
"V#	c #F8F05F",
"W#	c #B9A637",
"X#	c #D3BF3F",
"Y#	c #878242",
"Z#	c #454546",
"`#	c #656565",
" $	c #7B7B7B",
".$	c #7C7C7D",
"+$	c #656566",
"@$	c #444445",
"#$	c #847F40",
"$$	c #D3BF3E",
"%$	c #B8A536",
"&$	c #F7F05F",
"*$	c #EED140",
"=$	c #E1D7C1",
"-$	c #DDD4C1",
";$	c #EDCE3D",
">$	c #FEF663",
",$	c #D1C550",
"'$	c #CDB743",
")$	c #9E9649",
"!$	c #484849",
"~$	c #676767",
"{$	c #828282",
"]$	c #3B3B3D",
"^$	c #9C943F",
"/$	c #CFB838",
"($	c #CFC24B",
"_$	c #FAF466",
":$	c #E7CD4A",
"<$	c #DED5C2",
"[$	c #D3CDC0",
"}$	c #DEBE34",
"|$	c #F7ED5D",
"1$	c #E3DC5B",
"2$	c #CBB236",
"3$	c #B6AA45",
"4$	c #3D3D3E",
"5$	c #5C5C5C",
"6$	c #B4A944",
"7$	c #CCB435",
"8$	c #E6DF5F",
"9$	c #FEF25C",
"0$	c #E1C238",
"a$	c #D4CDC1",
"b$	c #C9AA32",
"c$	c #F4E654",
"d$	c #F1ED65",
"e$	c #CFB839",
"f$	c #CDBE46",
"g$	c #444430",
"h$	c #414141",
"i$	c #707070",
"j$	c #636363",
"k$	c #414130",
"l$	c #CCBC47",
"m$	c #D0B839",
"n$	c #F6F368",
"o$	c #FDE952",
"p$	c #CFB036",
"q$	c #E4E1DC",
"r$	c #E5D5B1",
"s$	c #F9DF49",
"t$	c #FCF763",
"u$	c #DCCC48",
"v$	c #E5D34B",
"w$	c #6E6B33",
"x$	c #2C2C2C",
"y$	c #3C3C3C",
"z$	c #3E3E3F",
"A$	c #6C6933",
"B$	c #E5D24B",
"C$	c #DCCB47",
"D$	c #FAE04A",
"E$	c #E6D6B1",
"F$	c #8A8883",
"G$	c #F3D761",
"H$	c #FFF45B",
"I$	c #ECE153",
"J$	c #EFDE4F",
"K$	c #CDCA6B",
"L$	c #88874E",
"M$	c #676738",
"N$	c #5A5A30",
"O$	c #666637",
"P$	c #CCC86B",
"Q$	c #F0DE50",
"R$	c #EBE053",
"S$	c #F2D553",
"T$	c #F4EAD2",
"U$	c #F2DF4F",
"V$	c #F8EE58",
"W$	c #E8D954",
"X$	c #F9F782",
"Y$	c #F2F188",
"Z$	c #E7E682",
"`$	c #E1E07D",
" %	c #E7E580",
".%	c #F1F087",
"+%	c #F9F783",
"@%	c #E9DA54",
"#%	c #F7ED57",
"$%	c #F2DE4E",
"%%	c #EFE1C0",
"&%	c #E2E0D4",
"*%	c #E2D96E",
"=%	c #E2D04E",
"-%	c #F8F47E",
";%	c #FDFC90",
">%	c #FDFC94",
",%	c #FCFC95",
"'%	c #FCFC90",
")%	c #F8F47F",
"!%	c #E4D14F",
"~%	c #E8E17F",
"{%	c #F0ECD6",
"]%	c #D9D1BB",
"^%	c #C9C386",
"/%	c #CBC974",
"(%	c #D7D582",
"_%	c #DAD984",
":%	c #D7D782",
"<%	c #CDCB76",
"[%	c #DFDBA8",
"}%	c #EAE4D2",
"                                . + @ # $ % &                                   ",
"                            * = - ; > , > ' ) ! ~                               ",
"                        { ] ^ / ( _ : < [ _ } | 1 2 {                           ",
"                      3 4 5 6 7 8 9 0 a b c d 7 e f 4 3                         ",
"                      g h i j k l m n o n m p k j q r s                         ",
"                      t u v w x y z A B A C D E F v u G                         ",
"                      H I J K L M N O P O Q R S T U V W                         ",
"                      X Y Z `  ...+.@.#.@.$.%.&.*.=.-.;.                        ",
"                      >.,.'.).!.~.{.].].].^./.!.).(._.:.                        ",
"                      <.[.}.|.1.2.3.4.5.6.7.8.9.|.0.a.b.                        ",
"                      c.d.e.f.g.h.i.j.k.l.m.n.g.o.p.q.c.                        ",
"                      r.s.t.u.v.w.x.y.z.A.B.C.D.E.F.G.H.                        ",
"                      I.J.K.L.M.N.O.P.Q.P.O.R.S.T.U.V.I.                        ",
"                      W.X.Y.Z.`. +.+++@+`.#+$+%+&+*+=+-+                        ",
"                      ;+>+,+'+'+#+)+!+`.!+~+)+{+'+]+^+/+                        ",
"                      (+_+:+<+[+O.}+|+1+|+2+3+3+|+:+4+5+                        ",
"                      6+7+8+9+P.O.!+0+3+~+a+b+a+0+8+c+d+                        ",
"                  e+f+g+h+i+j+k+l+P.m+n+@+++o+++p+q+r+s+t+e+                    ",
"                  u+v+w+x+y+z+A+B+C+D+E+F+G+H+I+J+K+L+M+N+u+                    ",
"                      O+P+Q+R+S+T+U+V+W+V+X+Y+Z+`+ @.@+@                        ",
"                      @@#@$@%@&@*@=@-@;@>@,@'@)@!@~@{@]@                        ",
"                      ^@/@(@_@:@<@[@}@|@1@2@<@3@4@5@6@^@                        ",
"                      ^@7@8@9@0@a@b@c@d@e@f@g@h@i@j@k@^@                        ",
"                      l@m@n@o@p@q@r@s@t@u@v@w@x@y@z@A@l@                        ",
"                      l@B@C@D@a@E@F@G@G@H@I@J@K@L@M@N@O@                        ",
"                      P@Q@R@S@T@U@V@W@W@W@V@X@Y@Z@`@ #.#                        ",
"                      +#@###$#%#f@&#*#=#-#&#;#>#,#'#)#!#                        ",
"                      ~#{#]#^#/#(#;#_#:#<#[#}#|#1#2#3#4#                        ",
"                    5#6#7#8#9#0#a#b#c#d#e#2@a#0#f#g#h#i#j#                      ",
"                    k#l#m#n#o#p#q#r#s#t#u#v#w#x#y#z#A#B#C#                      ",
"                    D#E#F#G#H#I#J#K#L#M#L#N#J#O#P#Q#R#S#D#                      ",
"                    T#U#V#W#X#Y#Z#`# $.$ $+$@$#$$$%$&$*$=$                      ",
"                    -$;$>$,$'$)$!$ +~${$<+n+]$^$/$($_$:$<$                      ",
"                    [$}$|$1$2$3$4$5$`# $~$.+]$6$7$8$9$0$a$                      ",
"                      b$c$d$e$f$g$h$l+i$j$O.k$l$m$n$o$p$q$                      ",
"                      r$s$t$u$v$w$x$y$z$y$x$A$B$C$t$D$E$                        ",
"                      F$G$H$I$J$K$L$M$N$O$L$P$Q$R$H$S$F$                        ",
"                        T$U$V$W$X$Y$Z$`$ %.%+%@%#%$%%%                          ",
"                          &%*%=%-%;%>%,%>%'%)%!%~%{%                            ",
"                              ]%^%/%(%_%:%<%[%}%                                "};
