/* XPM */
static char * play_right_xpm[] = {
"40 40 675 2",
"  	c #040303",
". 	c #0C0B0B",
"+ 	c #31302E",
"@ 	c #373634",
"# 	c #0F0E0D",
"$ 	c #11100E",
"% 	c #403E39",
"& 	c #46433C",
"* 	c #47433C",
"= 	c #46423C",
"- 	c #43413C",
"; 	c #434240",
"> 	c #121211",
", 	c #333230",
"' 	c #A19F99",
") 	c #AEAB9F",
"! 	c #393733",
"~ 	c #0A0908",
"{ 	c #2B2926",
"] 	c #464033",
"^ 	c #58503A",
"/ 	c #C6BEAB",
"( 	c #D6CBB2",
"_ 	c #D8CDB3",
": 	c #D4CAB2",
"< 	c #CCC5B3",
"[ 	c #CBC7BD",
"} 	c #514C42",
"| 	c #383530",
"1 	c #464543",
"2 	c #484745",
"3 	c #474644",
"4 	c #3F3D3A",
"5 	c #5A5852",
"6 	c #DBD7CA",
"7 	c #CBBA7A",
"8 	c #595133",
"9 	c #403B2F",
"0 	c #433D2F",
"a 	c #454030",
"b 	c #454130",
"c 	c #433F2D",
"d 	c #383211",
"e 	c #39320B",
"f 	c #3D340B",
"g 	c #3F3409",
"h 	c #3D320C",
"i 	c #3A3528",
"j 	c #41403E",
"k 	c #121111",
"l 	c #151310",
"m 	c #545046",
"n 	c #968F7C",
"o 	c #D7C79B",
"p 	c #CAAF49",
"q 	c #DFC34F",
"r 	c #ECD156",
"s 	c #EDD356",
"t 	c #E7CB52",
"u 	c #D9BD4D",
"v 	c #C2A84D",
"w 	c #9D894B",
"x 	c #A9A192",
"y 	c #CECBC5",
"z 	c #D2D0CA",
"A 	c #D3D1CA",
"B 	c #D4D1CA",
"C 	c #D2CFC8",
"D 	c #BCB8AD",
"E 	c #ACA493",
"F 	c #AFA58C",
"G 	c #A7934B",
"H 	c #BFAE7A",
"I 	c #C2B48F",
"J 	c #C3B490",
"K 	c #CDBE92",
"L 	c #D4C794",
"M 	c #D4C995",
"N 	c #CDC18B",
"O 	c #B0A142",
"P 	c #B5A435",
"Q 	c #C0AA33",
"R 	c #C6AA2D",
"S 	c #C0A334",
"T 	c #B5A57E",
"U 	c #C1BFBA",
"V 	c #5A5958",
"W 	c #121212",
"X 	c #141312",
"Y 	c #625F55",
"Z 	c #E3D8B6",
"` 	c #EED76F",
" .	c #F6E05A",
"..	c #F1E355",
"+.	c #F4E85A",
"@.	c #F8EE5E",
"#.	c #F2E85A",
"$.	c #E7D84F",
"%.	c #D0BA3C",
"&.	c #B1962A",
"*.	c #907A27",
"=.	c #756638",
"-.	c #746B4E",
";.	c #837B64",
">.	c #88826D",
",.	c #87806B",
"'.	c #89826C",
").	c #847B61",
"!.	c #837858",
"~.	c #82754E",
"{.	c #87753D",
"].	c #9C8949",
"^.	c #A79041",
"/.	c #BB9F3D",
"(.	c #DDC54F",
"_.	c #F3E96F",
":.	c #EFE876",
"<.	c #D1CA63",
"[.	c #D0C958",
"}.	c #E3DD5A",
"|.	c #F3E957",
"1.	c #F3DE4B",
"2.	c #EACA3F",
"3.	c #C0A859",
"4.	c #9C9789",
"5.	c #C5C4C2",
"6.	c #424141",
"7.	c #484740",
"8.	c #D4D0B8",
"9.	c #F2E270",
"0.	c #FBEF5C",
"a.	c #F9F15F",
"b.	c #EFE860",
"c.	c #E3DA59",
"d.	c #D5C850",
"e.	c #C1B03D",
"f.	c #A6942E",
"g.	c #92832B",
"h.	c #8A7D30",
"i.	c #877C33",
"j.	c #877D36",
"k.	c #8B823A",
"l.	c #928942",
"m.	c #999047",
"n.	c #9F9545",
"o.	c #AA9E43",
"p.	c #B1A03D",
"q.	c #A18D37",
"r.	c #826F28",
"s.	c #7C692D",
"t.	c #7D6C3C",
"u.	c #7A6A3B",
"v.	c #7B6B37",
"w.	c #918538",
"x.	c #C8C55A",
"y.	c #EDEB6D",
"z.	c #E2E164",
"A.	c #D9D65B",
"B.	c #E1DB59",
"C.	c #F5E958",
"D.	c #F6E152",
"E.	c #F3D442",
"F.	c #DBBC45",
"G.	c #A89870",
"H.	c #A3A19A",
"I.	c #545351",
"J.	c #141413",
"K.	c #625E43",
"L.	c #DCD373",
"M.	c #F4E95A",
"N.	c #EDE253",
"O.	c #E0D14B",
"P.	c #D3BF40",
"Q.	c #CCB63D",
"R.	c #CAB644",
"S.	c #CCB940",
"T.	c #CEC047",
"U.	c #DCD355",
"V.	c #E1DB62",
"W.	c #E5E06C",
"X.	c #E9E576",
"Y.	c #ECE97D",
"Z.	c #EFED82",
"`.	c #F2F184",
" +	c #F5F37F",
".+	c #F6F373",
"++	c #F3EC61",
"@+	c #C7BA4E",
"#+	c #615931",
"$+	c #4E4A41",
"%+	c #63615D",
"&+	c #666562",
"*+	c #5F5D5A",
"=+	c #4D4B40",
"-+	c #717038",
";+	c #D3D25D",
">+	c #F8F867",
",+	c #FBFA64",
"'+	c #FBF65F",
")+	c #FAEB57",
"!+	c #F4DD51",
"~+	c #F4D343",
"{+	c #EAC73B",
"]+	c #D4B54D",
"^+	c #BBAA80",
"/+	c #CECBC2",
"(+	c #484744",
"_+	c #D1C9AA",
":+	c #E3D462",
"<+	c #EADD58",
"[+	c #EBDB52",
"}+	c #DDCC49",
"|+	c #C7B844",
"1+	c #B2A544",
"2+	c #9E9548",
"3+	c #8F8843",
"4+	c #A7A44E",
"5+	c #F1F170",
"6+	c #FCFC80",
"7+	c #FDFD8C",
"8+	c #FDFD95",
"9+	c #FEFD9D",
"0+	c #FEFEA1",
"a+	c #FEFE9F",
"b+	c #FEFE97",
"c+	c #FEFE88",
"d+	c #FCF971",
"e+	c #DFD45B",
"f+	c #79744A",
"g+	c #565653",
"h+	c #464646",
"i+	c #4F4F4F",
"j+	c #5B5B5B",
"k+	c #4F4F4E",
"l+	c #424231",
"m+	c #9A9A47",
"n+	c #F1F26A",
"o+	c #FBFB66",
"p+	c #F9F35E",
"q+	c #F9EA56",
"r+	c #F7E051",
"s+	c #F8D641",
"t+	c #EDC835",
"u+	c #DDB92E",
"v+	c #C8A93D",
"w+	c #B6A16A",
"x+	c #5A5344",
"y+	c #CFC989",
"z+	c #F3EF7E",
"A+	c #F4F17D",
"B+	c #CBC766",
"C+	c #827D3B",
"D+	c #5D5A35",
"E+	c #545141",
"F+	c #54534A",
"G+	c #59584A",
"H+	c #9D9C57",
"I+	c #F3F37D",
"J+	c #FDFC8C",
"K+	c #FDFC9A",
"L+	c #FDFDA4",
"M+	c #FFFEAD",
"N+	c #FFFEB0",
"O+	c #FFFFAB",
"P+	c #FFFFA1",
"Q+	c #FEFF93",
"R+	c #FCFC7C",
"S+	c #EDE666",
"T+	c #918B52",
"U+	c #61605C",
"V+	c #484848",
"W+	c #595959",
"X+	c #565656",
"Y+	c #3F3F3B",
"Z+	c #6D6E3A",
"`+	c #DDDE6B",
" @	c #E5E56B",
".@	c #C8C353",
"+@	c #CEC34E",
"@@	c #E9D552",
"#@	c #F8D843",
"$@	c #F0CB36",
"%@	c #E1BC2A",
"&@	c #D2AE24",
"*@	c #C4A646",
"=@	c #D5CAB5",
"-@	c #D1CF79",
";@	c #F8F78C",
">@	c #ECEB84",
",@	c #959454",
"'@	c #454434",
")@	c #464644",
"!@	c #5A5A5A",
"~@	c #6B6B64",
"{@	c #A7A765",
"]@	c #F5F489",
"^@	c #FEFD98",
"/@	c #FCFCAD",
"(@	c #FCFCB3",
"_@	c #FCFCB5",
":@	c #FCFCB0",
"<@	c #FDFCA5",
"[@	c #FEFD83",
"}@	c #F4F16B",
"|@	c #A29F49",
"1@	c #525247",
"2@	c #5E5E5E",
"3@	c #6C6C6C",
"4@	c #696969",
"5@	c #414141",
"6@	c #535332",
"7@	c #CCCD65",
"8@	c #EEEE74",
"9@	c #DADA63",
"0@	c #D0CD56",
"a@	c #E5D651",
"b@	c #F3D643",
"c@	c #EDCA36",
"d@	c #E0BC2A",
"e@	c #D3B022",
"f@	c #C9A93C",
"g@	c #D5C6A3",
"h@	c #DAD883",
"i@	c #F8F791",
"j@	c #E2E180",
"k@	c #787844",
"l@	c #44443F",
"m@	c #5F5F5F",
"n@	c #666666",
"o@	c #6A6A6A",
"p@	c #7D7D77",
"q@	c #AEAE6E",
"r@	c #F7F691",
"s@	c #FFFE9F",
"t@	c #FFFEAB",
"u@	c #FEFEB5",
"v@	c #FFFFBD",
"w@	c #FFFFBE",
"x@	c #FEFEB9",
"y@	c #FEFEAC",
"z@	c #FEFE9D",
"A@	c #FFFF88",
"B@	c #F8F76F",
"C@	c #B1B14E",
"D@	c #5D5E50",
"E@	c #6B6B6B",
"F@	c #525252",
"G@	c #3F3F3F",
"H@	c #46462D",
"I@	c #C1C25F",
"J@	c #F9FA75",
"K@	c #FBFC6F",
"L@	c #FAF965",
"M@	c #FCF25A",
"N@	c #FDE44C",
"O@	c #F6D33D",
"P@	c #E7C32F",
"Q@	c #D6B324",
"R@	c #CAA82D",
"S@	c #C2AA6C",
"T@	c #DDDC85",
"U@	c #F7F792",
"V@	c #DDDC7C",
"W@	c #6E6E3D",
"X@	c #464643",
"Y@	c #787878",
"Z@	c #7D7D7D",
"`@	c #81817B",
" #	c #AFAF70",
".#	c #F6F692",
"+#	c #FEFFB7",
"@#	c #FFFFBF",
"##	c #FEFEBA",
"$#	c #FEFFAF",
"%#	c #FEFF8B",
"&#	c #F8F871",
"*#	c #B8B852",
"=#	c #646457",
"-#	c #757575",
";#	c #555555",
">#	c #4E4E4E",
",#	c #3E3E3E",
"'#	c #44442D",
")#	c #BDBD5D",
"!#	c #F9FA74",
"~#	c #FEFF70",
"{#	c #FFFD67",
"]#	c #FFF55C",
"^#	c #FEE64D",
"/#	c #F8D53E",
"(#	c #EAC530",
"_#	c #DAB525",
":#	c #CAA821",
"<#	c #AE9230",
"[#	c #DADA83",
"}#	c #E2E07E",
"|#	c #787743",
"1#	c #606060",
"2#	c #686868",
"3#	c #F7F790",
"4#	c #FFFF9F",
"5#	c #FFFFB5",
"6#	c #FEFEBE",
"7#	c #FEFFB9",
"8#	c #FFFFAD",
"9#	c #FEFF9D",
"0#	c #FEFF88",
"a#	c #F8F86F",
"b#	c #B1B14F",
"c#	c #5F5F52",
"d#	c #6D6D6D",
"e#	c #515151",
"f#	c #C2C25E",
"g#	c #FBF965",
"h#	c #E7C330",
"i#	c #D6B325",
"j#	c #C9A723",
"k#	c #B79B3F",
"l#	c #D4D27E",
"m#	c #F8F78D",
"n#	c #ECEA83",
"o#	c #959354",
"p#	c #444434",
"q#	c #454544",
"r#	c #585858",
"s#	c #575757",
"t#	c #6A6A64",
"u#	c #A7A766",
"v#	c #F5F589",
"w#	c #FEFE98",
"x#	c #FEFDA4",
"y#	c #FCFCB4",
"z#	c #FDFDAF",
"A#	c #FDFDA5",
"B#	c #FFFE83",
"C#	c #F6F468",
"D#	c #A2A047",
"E#	c #5D5D54",
"F#	c #737373",
"G#	c #767676",
"H#	c #414140",
"I#	c #545432",
"J#	c #CDCD65",
"K#	c #EFEF74",
"L#	c #DCDC64",
"M#	c #D2CF56",
"N#	c #E7D74F",
"O#	c #F4D743",
"P#	c #E0BC2B",
"Q#	c #C9A93B",
"R#	c #D4C39F",
"S#	c #E1DDA5",
"T#	c #F5F082",
"U#	c #F4F17E",
"V#	c #CAC566",
"W#	c #817B3B",
"X#	c #5B5735",
"Y#	c #524F40",
"Z#	c #4C4B40",
"`#	c #575748",
" $	c #9C9C57",
".$	c #FCFC9A",
"+$	c #FEFEAD",
"@$	c #FEFEAF",
"#$	c #FEFFAB",
"$$	c #FFFEA2",
"%$	c #FEFE7C",
"&$	c #F1EB60",
"*$	c #8A853C",
"=$	c #5B5A55",
"-$	c #797979",
";$	c #545454",
">$	c #3D3D39",
",$	c #6C6C38",
"'$	c #DEDE6B",
")$	c #E5E46B",
"!$	c #C7C252",
"~$	c #CFC34B",
"{$	c #EDD74A",
"]$	c #F9D942",
"^$	c #EFCB36",
"/$	c #E1BD2A",
"($	c #D2AF23",
"_$	c #D5CAB4",
":$	c #E1DAC0",
"<$	c #E6D768",
"[$	c #EBDD59",
"}$	c #ECDB53",
"|$	c #DDCB4A",
"1$	c #C6B645",
"2$	c #B0A442",
"3$	c #9C933F",
"4$	c #8D8641",
"5$	c #A6A34D",
"6$	c #F1F171",
"7$	c #FCFC8C",
"8$	c #FDFDA1",
"9$	c #FFFE97",
"0$	c #FFFE88",
"a$	c #FDFA70",
"b$	c #E4D854",
"c$	c #726B34",
"d$	c #565552",
"e$	c #777777",
"f$	c #4B4B4B",
"g$	c #414130",
"h$	c #989946",
"i$	c #FBFB67",
"j$	c #FAEB54",
"k$	c #FCE24A",
"l$	c #F9D640",
"m$	c #C8A93C",
"n$	c #B49F66",
"o$	c #5A5343",
"p$	c #67644C",
"q$	c #E2DA7F",
"r$	c #F4E95B",
"s$	c #EDE153",
"t$	c #E0D04A",
"u$	c #D4BF40",
"v$	c #CDB83C",
"w$	c #CBB73B",
"x$	c #CCB93E",
"y$	c #CFC047",
"z$	c #DDD456",
"A$	c #E2DD63",
"B$	c #E6E16D",
"C$	c #E9E677",
"D$	c #ECEA7E",
"E$	c #F0EE83",
"F$	c #F3F185",
"G$	c #F5F380",
"H$	c #F7F374",
"I$	c #F4ED60",
"J$	c #CCBD45",
"K$	c #61592D",
"L$	c #56534C",
"M$	c #6E6D6A",
"N$	c #6D6C69",
"O$	c #605F5C",
"P$	c #4B493E",
"Q$	c #6F6F38",
"R$	c #D2D25D",
"S$	c #F8F868",
"T$	c #FBEC55",
"U$	c #F8DF49",
"V$	c #F4D441",
"W$	c #EAC83A",
"X$	c #D4B54B",
"Y$	c #B9A87D",
"Z$	c #C2BEB3",
"`$	c #43413E",
" %	c #4D4B41",
".%	c #DFD9BA",
"+%	c #F2E16D",
"@%	c #FBEF5B",
"#%	c #F3ED62",
"$%	c #E6DD5C",
"%%	c #D3C64D",
"&%	c #C0AF3C",
"*%	c #A7942E",
"=%	c #94842B",
"-%	c #8B7E31",
";%	c #887D35",
">%	c #897F38",
",%	c #8D833C",
"'%	c #948A44",
")%	c #9A9147",
"!%	c #A29846",
"~%	c #ADA042",
"{%	c #B4A33C",
"]%	c #A48F33",
"^%	c #826E27",
"/%	c #7C692E",
"(%	c #7E6D3D",
"_%	c #7A6A3C",
":%	c #7A6A38",
"<%	c #8F8337",
"[%	c #C6C459",
"}%	c #ECEB6C",
"|%	c #E4E264",
"1%	c #DAD75B",
"2%	c #E1DC59",
"3%	c #F6E957",
"4%	c #F8E24D",
"5%	c #F3D441",
"6%	c #DCBC44",
"7%	c #A8996F",
"8%	c #A4A29A",
"9%	c #51504D",
"0%	c #131211",
"a%	c #161512",
"b%	c #646052",
"c%	c #DFD0A7",
"d%	c #EDD565",
"e%	c #F8E05A",
"f%	c #F9E654",
"g%	c #F9EC5A",
"h%	c #F5ED61",
"i%	c #F1E85A",
"j%	c #E6D74F",
"k%	c #CFB93B",
"l%	c #AF9629",
"m%	c #756738",
"n%	c #756A4E",
"o%	c #867E68",
"p%	c #888066",
"q%	c #867C5C",
"r%	c #83764F",
"s%	c #86743C",
"t%	c #9B8848",
"u%	c #A79042",
"v%	c #F2E96F",
"w%	c #EEE876",
"x%	c #D0C962",
"y%	c #CFC957",
"z%	c #E2DC5A",
"A%	c #F3E958",
"B%	c #F2DE4F",
"C%	c #EACA40",
"D%	c #C1A85A",
"E%	c #14120E",
"F%	c #524D42",
"G%	c #968F7B",
"H%	c #D9C99C",
"I%	c #D7BD61",
"J%	c #E2C754",
"K%	c #E8D15D",
"L%	c #EDD358",
"M%	c #E7CB53",
"N%	c #DABD4D",
"O%	c #C2A747",
"P%	c #9E894B",
"Q%	c #A9A191",
"R%	c #CFCBC5",
"S%	c #D3D0CA",
"T%	c #CCC8BF",
"U%	c #B0A896",
"V%	c #B0A78C",
"W%	c #A5924C",
"X%	c #BFAE7B",
"Y%	c #C4B490",
"Z%	c #CEBE92",
"`%	c #B2A242",
" &	c #B5A536",
".&	c #C0AB35",
"+&	c #C5AB38",
"@&	c #C1A335",
"#&	c #B5A67E",
"$&	c #605B51",
"%&	c #D1CCC2",
"&&	c #CFC6B5",
"*&	c #D6CCB4",
"=&	c #D9CEB3",
"-&	c #CCC3B2",
";&	c #BDB7AB",
">&	c #4D483B",
",&	c #474543",
"'&	c #454441",
")&	c #5B5853",
"!&	c #CBB97A",
"~&	c #595033",
"{&	c #393211",
"]&	c #39320C",
"^&	c #3C340C",
"/&	c #3F350D",
"(&	c #3D320D",
"_&	c #3B3528",
":&	c #131212",
"<&	c #454442",
"[&	c #44413D",
"}&	c #47443C",
"|&	c #43403C",
"1&	c #3D3C39",
"2&	c #100F0F",
"                                                                                ",
"                                                                                ",
"                                                                                ",
"                                                                                ",
"                                                                                ",
"                                                                                ",
"                                                                                ",
"                                                                                ",
"                                        . + @ #                                 ",
"          $ % & * = - ; >               , ' ) !                                 ",
"    ~ { ] ^ / ( _ : < [ } | 1 2 2 2 3 4 5 6 7 8 9 9 0 a b c d e f g h i j k     ",
"  l m n o p q r s t u v w x y z A B C D E F G H I J K L M N O P Q R S T U V W   ",
"X Y Z `  ...+.@.#.$.%.&.*.=.-.;.>.,.'.).!.~.{.].^./.(._.:.<.[.}.|.1.2.3.4.5.6.  ",
"7.8.9.0.a.b.c.d.e.f.g.h.i.j.k.l.m.n.o.p.q.r.s.t.u.v.w.x.y.z.A.B.C.D.E.F.G.H.I.J.",
"K.L.M.N.O.P.Q.R.S.T.U.V.W.X.Y.Z.`. +.+++@+#+$+%+&+*+=+-+;+>+,+'+)+!+~+{+]+^+/+(+",
"_+:+<+[+}+|+1+2+3+4+5+6+7+8+9+0+a+b+c+d+e+f+g+h+i+j+k+l+m+n+o+p+q+r+s+t+u+v+w+x+",
"y+z+A+B+C+D+E+F+G+H+I+J+K+L+M+N+O+P+Q+R+S+T+U+h+V+W+X+Y+Z+`+ @.@+@@@#@$@%@&@*@=@",
"-@;@>@,@'@)@W+!@~@{@]@^@L+/@(@_@:@<@^@[@}@|@1@2@3@4@!@5@6@7@8@9@0@a@b@c@d@e@f@g@",
"h@i@j@k@l@m@n@o@p@q@r@s@t@u@v@w@x@y@z@A@B@C@D@3@E@m@F@G@H@I@J@K@L@M@N@O@P@Q@R@S@",
"T@U@V@W@X@3@Y@Z@`@ #.#0+M++#w@@###$#a+%#&#*#=#-#o@;#>#,#'#)#!#~#{#]#^#/#(#_#:#<#",
"[#i@}#|#l@1#2#o@p@q@3#4#t@5#v@6#7#8#9#0#a#b#c#d#3@m@e#G@H@f#!#K@g#M@N@O@h#i#j#k#",
"l#m#n#o#p#q#r#s#t#u#v#w#x#/@(@y#z#A#w#B#C#D#E#F#G#3@r#H#I#J#K#L#M#N#O#c@P#e@Q#R#",
"S#T#U#V#W#X#Y#Z#`# $I+J+.$L++$@$#$$$Q+%$&$*$=$G#-$3@;$>$,$'$)$!$~${$]$^$/$($*@_$",
":$<$[$}$|$1$2$3$4$5$6$6+7$8+z@8$a+9$0$a$b$c$d$F#e$4@f$g$h$n+i$p+j$k$l$t+u+m$n$o$",
"p$q$r$s$t$u$v$w$x$y$z$A$B$C$D$E$F$G$H$I$J$K$L$M$N$O$P$Q$R$S$,+'+T$U$V$W$X$Y$Z$`$",
" %.%+%@%a.#%$%%%&%*%=%-%;%>%,%'%)%!%~%{%]%^%/%(%_%:%<%[%}%|%1%2%3%4%5%6%7%8%9%0%",
"a%b%c%d%e%f%g%h%i%j%k%l%*.m%n%;.,.'.o%p%q%r%s%t%u%/.(.v%w%x%y%z%A%B%C%D%4.5.6.  ",
"  E%F%G%H%I%J%K%L%M%N%O%P%Q%R%S%A B S%T%U%V%W%X%I Y%Z%L M N `% &.&+&@&#&U V W   ",
"    ~ { $&%&&&*&=&: -&;&>&| ,&2 2 2 2 '&)&6 !&~&9 9 0 a b c {&]&^&/&(&_&j k     ",
"        :&<&[&& }&= |&1&2&              , ' ) !                                 ",
"                                        . + @ #                                 ",
"                                                                                ",
"                                                                                ",
"                                                                                ",
"                                                                                ",
"                                                                                ",
"                                                                                ",
"                                                                                ",
"                                                                                ",
"                                                                                "};
