/* XPM */
static char * play_down_xpm[] = {
"40 40 732 2",
"  	c #040303",
". 	c #0B0907",
"+ 	c #2F2D26",
"@ 	c #676454",
"# 	c #868261",
"$ 	c #DBD4B2",
"% 	c #E2DEA2",
"& 	c #D9D783",
"* 	c #DDDD84",
"= 	c #DFDE86",
"- 	c #DDDB84",
"; 	c #D6D47D",
"> 	c #D3CD8A",
", 	c #CDC59D",
"' 	c #807B57",
") 	c #615F52",
"! 	c #2C2B27",
"~ 	c #0A0908",
"{ 	c #080605",
"] 	c #2C2922",
"^ 	c #7C7662",
"/ 	c #D4CDA6",
"( 	c #DED57E",
"_ 	c #E6DA74",
": 	c #F2ED84",
"< 	c #F4F38B",
"[ 	c #F4F38E",
"} 	c #F3F38F",
"| 	c #F4F38A",
"1 	c #F0EB7E",
"2 	c #E3D66C",
"3 	c #D8CF75",
"4 	c #CBC6A4",
"5 	c #7A7566",
"6 	c #2C2A24",
"7 	c #080706",
"8 	c #050404",
"9 	c #1D1B17",
"0 	c #686150",
"a 	c #D4C696",
"b 	c #EFE077",
"c 	c #F1E660",
"d 	c #ECDF5E",
"e 	c #F0EC7A",
"f 	c #E7E580",
"g 	c #DEDC7C",
"h 	c #DAD97B",
"i 	c #DEDD7E",
"j 	c #E7E681",
"k 	c #EFEC79",
"l 	c #EBDF5C",
"m 	c #F1E55E",
"n 	c #EFE17B",
"o 	c #D7CCA2",
"p 	c #6A6555",
"q 	c #1D1B18",
"r 	c #0D0B0A",
"s 	c #403D35",
"t 	c #9D9475",
"u 	c #E8D36C",
"v 	c #F8EB5E",
"w 	c #EEE154",
"x 	c #E8D955",
"y 	c #C9C363",
"z 	c #9D9B57",
"A 	c #84834B",
"B 	c #7C7B46",
"C 	c #84844C",
"D 	c #9D9C58",
"E 	c #CAC563",
"F 	c #E8D954",
"G 	c #EDE254",
"H 	c #F8EB60",
"I 	c #E9D574",
"J 	c #9D9477",
"K 	c #3E3A33",
"L 	c #0B0908",
"M 	c #070505",
"N 	c #282724",
"O 	c #777062",
"P 	c #D1C18E",
"Q 	c #F5DF62",
"R 	c #F7ED5D",
"S 	c #E2D34C",
"T 	c #D7C64A",
"U 	c #8D8640",
"V 	c #55543A",
"W 	c #4D4D42",
"X 	c #4E4E46",
"Y 	c #56553A",
"Z 	c #8E8840",
"` 	c #D7C749",
" .	c #E2D34D",
"..	c #F6EC5D",
"+.	c #F3DF62",
"@.	c #CEBD8B",
"#.	c #5B5340",
"$.	c #13110C",
"%.	c #111010",
"&.	c #575551",
"*.	c #C5BEAF",
"=.	c #DAC370",
"-.	c #F6E458",
";.	c #F1E85E",
">.	c #D6C344",
",.	c #C2B244",
"'.	c #6B6539",
").	c #4B4B46",
"!.	c #5E5E5E",
"~.	c #696968",
"{.	c #5D5D5D",
"].	c #4C4C46",
"^.	c #6C6739",
"/.	c #C2B443",
"(.	c #D5C344",
"_.	c #EDE45C",
":.	c #EFE057",
"<.	c #CAB354",
"[.	c #70664A",
"}.	c #25231D",
"|.	c #060505",
"1.	c #12100F",
"2.	c #59564F",
"3.	c #CAC0AA",
"4.	c #E2CA63",
"5.	c #F5E85A",
"6.	c #E5DB59",
"7.	c #CDBA40",
"8.	c #AEA141",
"9.	c #5F5B42",
"0.	c #585856",
"a.	c #686868",
"b.	c #757575",
"c.	c #666666",
"d.	c #595957",
"e.	c #615D43",
"f.	c #AFA244",
"g.	c #CCB941",
"h.	c #E3D857",
"i.	c #F1E459",
"j.	c #DEC55B",
"k.	c #BDB49B",
"l.	c #524F47",
"m.	c #100F0D",
"n.	c #12110F",
"o.	c #5C584E",
"p.	c #D0C5A8",
"q.	c #E8D367",
"r.	c #F1E75E",
"s.	c #D6C94E",
"t.	c #C9B63D",
"u.	c #9D933F",
"v.	c #595643",
"w.	c #5A5A58",
"x.	c #6C6C6B",
"y.	c #7A7A7A",
"z.	c #5C5C5B",
"A.	c #5E5C4B",
"B.	c #9F9447",
"C.	c #C8B545",
"D.	c #D7CA50",
"E.	c #F4E85C",
"F.	c #EAD262",
"G.	c #D0C4A6",
"H.	c #5C574D",
"I.	c #12110E",
"J.	c #13110F",
"K.	c #5D594E",
"L.	c #D3C7A7",
"M.	c #EBD464",
"N.	c #EDE158",
"O.	c #C5B540",
"P.	c #C7B53F",
"Q.	c #948C42",
"R.	c #65644B",
"S.	c #707063",
"T.	c #808074",
"U.	c #858579",
"V.	c #717163",
"W.	c #67664D",
"X.	c #958D45",
"Y.	c #C7B541",
"Z.	c #C6B641",
"`.	c #EEE257",
" +	c #EBD462",
".+	c #D2C6A7",
"++	c #5D584E",
"@+	c #5B574D",
"#+	c #CEC3A6",
"$+	c #E5CC5F",
"%+	c #E1D14D",
"&+	c #B2A035",
"*+	c #CABC47",
"=+	c #AFAB50",
"-+	c #A3A35B",
";+	c #ABAB69",
">+	c #B2B272",
",+	c #B3B374",
"'+	c #ABAB68",
")+	c #A4A35B",
"!+	c #AFAC51",
"~+	c #C9BC47",
"{+	c #B1A035",
"]+	c #E2D24D",
"^+	c #11100E",
"/+	c #58544D",
"(+	c #C6BBA5",
"_+	c #D7BD5A",
":+	c #CCB63C",
"<+	c #A29332",
"[+	c #D9D056",
"}+	c #ECEB6F",
"|+	c #EEEE7C",
"1+	c #F1F188",
"2+	c #F2F28F",
"3+	c #F2F291",
"4+	c #F1F088",
"5+	c #ECEB6E",
"6+	c #D8D055",
"7+	c #A19232",
"8+	c #CCB73D",
"9+	c #D7BD5B",
"0+	c #C7BEA8",
"a+	c #58554E",
"b+	c #0F0E0D",
"c+	c #4E4C47",
"d+	c #B3AB9A",
"e+	c #BFA753",
"f+	c #AF972E",
"g+	c #998C37",
"h+	c #DFDA63",
"i+	c #F9F97F",
"j+	c #FCFB8C",
"k+	c #FDFD98",
"l+	c #FEFE9E",
"m+	c #FEFDA1",
"n+	c #FEFD9F",
"o+	c #FDFC98",
"p+	c #DED862",
"q+	c #988B36",
"r+	c #B09730",
"s+	c #C0A95A",
"t+	c #BDB8A9",
"u+	c #54534F",
"v+	c #11100F",
"w+	c #22201D",
"x+	c #615B4A",
"y+	c #9D8950",
"z+	c #927D2F",
"A+	c #94893B",
"B+	c #E2DD6D",
"C+	c #FAFA8B",
"D+	c #FCFC9A",
"E+	c #FEFDA4",
"F+	c #FFFEAB",
"G+	c #FFFEAD",
"H+	c #FDFDA4",
"I+	c #FDFC9A",
"J+	c #FBFB8B",
"K+	c #E1DD6C",
"L+	c #93883A",
"M+	c #9C8952",
"N+	c #665F52",
"O+	c #252421",
"P+	c #100E0C",
"Q+	c #4C4840",
"R+	c #A29A88",
"S+	c #7F7146",
"T+	c #938A40",
"U+	c #E5E276",
"V+	c #FBFB94",
"W+	c #FCFCAD",
"X+	c #FFFFB4",
"Y+	c #FEFFB6",
"Z+	c #FEFEB4",
"`+	c #E5E175",
" @	c #92893F",
".@	c #7E7146",
"+@	c #A29A89",
"@@	c #4C4841",
"#@	c #100E0D",
"$@	c #121110",
"%@	c #5A5855",
"&@	c #C0BCB5",
"*@	c #82795E",
"=@	c #978E46",
"-@	c #E8E57D",
";@	c #FCFC9C",
">@	c #FEFEAC",
",@	c #FCFCB3",
"'@	c #FFFFBC",
")@	c #FFFFBD",
"!@	c #FFFEAC",
"~@	c #FDFC9C",
"{@	c #E8E57C",
"]@	c #81795E",
"^@	c #BFBCB5",
"/@	c #595855",
"(@	c #131211",
"_@	c #5C5B58",
":@	c #C6C3BC",
"<@	c #8D856F",
"[@	c #9D954E",
"}@	c #EBE982",
"|@	c #FCFCA0",
"1@	c #FEFEAE",
"2@	c #FCFCB4",
"3@	c #FEFEBD",
"4@	c #FFFFBE",
"5@	c #FCFCB5",
"6@	c #FFFEAF",
"7@	c #FDFDA0",
"8@	c #EAE881",
"9@	c #9C944D",
"0@	c #8D866F",
"a@	c #C5C3BC",
"b@	c #5D5B59",
"c@	c #C7C4BD",
"d@	c #918A74",
"e@	c #A39B52",
"f@	c #EEEC83",
"g@	c #FDFD9E",
"h@	c #FEFFAA",
"i@	c #FDFDAF",
"j@	c #FEFFB8",
"k@	c #FEFEB9",
"l@	c #FEFEB8",
"m@	c #FCFCB0",
"n@	c #FFFFAA",
"o@	c #EDEC82",
"p@	c #A29A51",
"q@	c #918B76",
"r@	c #938C75",
"s@	c #A9A150",
"t@	c #F0EE7E",
"u@	c #FEFD96",
"v@	c #FFFEA1",
"w@	c #FDFDA5",
"x@	c #FFFFAC",
"y@	c #FEFFAE",
"z@	c #FDFCA5",
"A@	c #FFFFA0",
"B@	c #FDFD96",
"C@	c #F0EE7D",
"D@	c #A79F50",
"E@	c #928B75",
"F@	c #5D5B58",
"G@	c #928B72",
"H@	c #B2A64B",
"I@	c #F2EE72",
"J@	c #FEFD87",
"K@	c #FEFF92",
"L@	c #FEFE98",
"M@	c #FEFF9D",
"N@	c #FEFE9F",
"O@	c #FEFE9C",
"P@	c #FEFD98",
"Q@	c #FDFD87",
"R@	c #F1EE72",
"S@	c #AFA54C",
"T@	c #938C74",
"U@	c #C4C1BA",
"V@	c #5B5A57",
"W@	c #171615",
"X@	c #5A5954",
"Y@	c #BFBBB1",
"Z@	c #938A6E",
"`@	c #B6A744",
" #	c #EEE65F",
".#	c #FBF770",
"+#	c #FDFC7C",
"@#	c #FEFD83",
"##	c #FEFE88",
"$#	c #FEFE8A",
"%#	c #FDFC83",
"&#	c #FBFA7C",
"*#	c #F9F671",
"=#	c #ECE560",
"-#	c #B3A445",
";#	c #8E8568",
">#	c #B2AEA3",
",#	c #54524D",
"'#	c #161514",
")#	c #191817",
"!#	c #464441",
"~#	c #726F67",
"{#	c #ABA392",
"]#	c #8D8261",
"^#	c #A59239",
"/#	c #C9BB46",
"(#	c #DFD455",
"_#	c #EBE660",
":#	c #F1EF68",
"<#	c #F3F36F",
"[#	c #F4F471",
"}#	c #F3F26F",
"|#	c #EFEC6B",
"1#	c #E8E266",
"2#	c #DBD15C",
"3#	c #C5B84E",
"4#	c #A28F3C",
"5#	c #8A7E5D",
"6#	c #A69F8D",
"7#	c #706E66",
"8#	c #0C0A0A",
"9#	c #41403D",
"0#	c #9D9A93",
"a#	c #CCC7B7",
"b#	c #AFA68B",
"c#	c #887B53",
"d#	c #83702E",
"e#	c #726933",
"f#	c #80793B",
"g#	c #948F43",
"h#	c #A7A54B",
"i#	c #B3B352",
"j#	c #B9B955",
"k#	c #B3B351",
"l#	c #A6A44E",
"m#	c #989353",
"n#	c #847E4C",
"o#	c #716837",
"p#	c #83712F",
"q#	c #877A53",
"r#	c #AFA48B",
"s#	c #0D0C0B",
"t#	c #464541",
"u#	c #A4A092",
"v#	c #C1B27F",
"w#	c #A9975B",
"x#	c #8A7840",
"y#	c #7B6934",
"z#	c #5D584C",
"A#	c #5C5A53",
"B#	c #626156",
"C#	c #676756",
"D#	c #6A6A55",
"E#	c #6F6F59",
"F#	c #686953",
"G#	c #5F5E4C",
"H#	c #636158",
"I#	c #595851",
"J#	c #575143",
"K#	c #7B6932",
"L#	c #8B7941",
"M#	c #AA985A",
"N#	c #C2B37F",
"O#	c #060504",
"P#	c #1D1B1A",
"Q#	c #4B4840",
"R#	c #706645",
"S#	c #B5A573",
"T#	c #9C894C",
"U#	c #7F6F42",
"V#	c #6E6C66",
"W#	c #717171",
"X#	c #747473",
"Y#	c #6D6D6C",
"Z#	c #727271",
"`#	c #6B6B6A",
" $	c #5E5E5D",
".$	c #4B4B4A",
"+$	c #635F58",
"@$	c #7E6D3F",
"#$	c #9C8A4C",
"$$	c #B6A572",
"%$	c #706745",
"&$	c #171511",
"*$	c #554E3D",
"=$	c #B9AB84",
"-$	c #A7914C",
";$	c #7E6E41",
">$	c #6E6C67",
",$	c #777777",
"'$	c #747474",
")$	c #6C6C6C",
"!$	c #6A6A6A",
"~$	c #4D4D4D",
"{$	c #515151",
"]$	c #66635D",
"^$	c #7D6E40",
"/$	c #A7914B",
"($	c #554F3D",
"_$	c #110E0B",
":$	c #544D3D",
"<$	c #BDAD86",
"[$	c #B9A04A",
"}$	c #81713D",
"|$	c #63615A",
"1$	c #686867",
"2$	c #6B6B6B",
"3$	c #606060",
"4$	c #585858",
"5$	c #5F5F5F",
"6$	c #595959",
"7$	c #615E57",
"8$	c #82723C",
"9$	c #BCAD86",
"0$	c #110F0B",
"a$	c #58513E",
"b$	c #C8B889",
"c$	c #D6C157",
"d$	c #978B3E",
"e$	c #585641",
"f$	c #4E4E4C",
"g$	c #545454",
"h$	c #575757",
"i$	c #4E4E4E",
"j$	c #525252",
"k$	c #555554",
"l$	c #50504D",
"m$	c #5A5743",
"n$	c #998D3E",
"o$	c #C7B889",
"p$	c #12100B",
"q$	c #5B553F",
"r$	c #CFC38C",
"s$	c #EBE170",
"t$	c #C5C259",
"u$	c #7F7F3F",
"v$	c #525236",
"w$	c #45453C",
"x$	c #454541",
"y$	c #424240",
"z$	c #40403F",
"A$	c #454542",
"B$	c #47473E",
"C$	c #535337",
"D$	c #81803F",
"E$	c #C7C35A",
"F$	c #ECE170",
"G$	c #5B563F",
"H$	c #CEC48C",
"I$	c #EAE476",
"J$	c #E7E56A",
"K$	c #CECE5C",
"L$	c #A0A149",
"M$	c #7B7B3F",
"N$	c #66663A",
"O$	c #5A5A35",
"P$	c #575735",
"Q$	c #65653A",
"R$	c #7B7C40",
"S$	c #A1A14A",
"T$	c #CFCE5C",
"U$	c #E8E56A",
"V$	c #EBE476",
"W$	c #CFC48C",
"X$	c #110F0A",
"Y$	c #575239",
"Z$	c #C5BA80",
"`$	c #D4CD67",
" %	c #E4E264",
".%	c #F3F367",
"+%	c #EBEC67",
"@%	c #D9D967",
"#%	c #CACA63",
"$%	c #C1C25E",
"%%	c #BDBE5D",
"&%	c #C9CA63",
"*%	c #D8D968",
"=%	c #F3F366",
"-%	c #E3E164",
";%	c #D4CD68",
">%	c #0F0C05",
",%	c #4D451C",
"'%	c #B1A349",
")%	c #D0C957",
"!%	c #DDDA5C",
"~%	c #F8F763",
"{%	c #F8F867",
"]%	c #E5E46A",
"^%	c #EBEB71",
"/%	c #F4F572",
"(%	c #F5F672",
"_%	c #F4F573",
":%	c #EAEA71",
"<%	c #E5E56A",
"[%	c #F8F866",
"}%	c #DDD95C",
"|%	c #D0C958",
"1%	c #B0A249",
"2%	c #4C451C",
"3%	c #0E0C05",
"4%	c #0E0C04",
"5%	c #4D4413",
"6%	c #B4A539",
"7%	c #DFD857",
"8%	c #E4DF5A",
"9%	c #F9F35E",
"0%	c #F6F05D",
"a%	c #D0CC56",
"b%	c #DEDE64",
"c%	c #F9F96E",
"d%	c #FDFE6F",
"e%	c #DDDC63",
"f%	c #D1CC57",
"g%	c #E4DE5A",
"h%	c #E0D857",
"i%	c #B4A438",
"j%	c #4D4412",
"k%	c #0F0C04",
"l%	c #514712",
"m%	c #BEAB37",
"n%	c #EEE355",
"o%	c #F5E856",
"p%	c #FAEB55",
"q%	c #F7E854",
"r%	c #D5C94D",
"s%	c #D8D457",
"t%	c #F9F664",
"u%	c #FEFC67",
"v%	c #F8F664",
"w%	c #D6D257",
"x%	c #D4C950",
"y%	c #F6E756",
"z%	c #F9EA57",
"A%	c #F4E857",
"B%	c #EEE354",
"C%	c #BEAA35",
"D%	c #514611",
"E%	c #100C04",
"F%	c #534713",
"G%	c #C2AA38",
"H%	c #EFDA4D",
"I%	c #F7E14D",
"J%	c #F8E04A",
"K%	c #FAE14A",
"L%	c #EDD74A",
"M%	c #E9D94F",
"N%	c #FBF059",
"O%	c #FEF45C",
"P%	c #FAF059",
"Q%	c #E7D851",
"R%	c #E9D551",
"S%	c #F6DF50",
"T%	c #F5DE51",
"U%	c #F5E051",
"V%	c #EFDA4A",
"W%	c #C3A930",
"X%	c #54460F",
"Y%	c #514417",
"Z%	c #BEA23D",
"`%	c #E6C743",
" &	c #F1D342",
".&	c #F4D441",
"+&	c #F8D640",
"@&	c #F7D742",
"#&	c #F4D744",
"$&	c #FCE34C",
"%&	c #FDE64D",
"&&	c #F3D644",
"*&	c #F6D643",
"=&	c #F7D642",
"-&	c #F3D344",
";&	c #F1D244",
">&	c #E6C742",
",&	c #BDA23C",
"'&	c #0F0D09",
")&	c #4E4736",
"!&	c #B2A279",
"~&	c #C3AB5F",
"{&	c #DABB4A",
"]&	c #E8C73D",
"^&	c #EDC836",
"/&	c #EECB36",
"(&	c #EDCB37",
"_&	c #F5D33D",
":&	c #F7D53E",
"<&	c #EFCB36",
"[&	c #E8C63E",
"}&	c #D9BB4A",
"|&	c #100F0E",
"1&	c #504F4C",
"2&	c #B2AFA7",
"3&	c #B09F71",
"4&	c #D2B451",
"5&	c #DCB933",
"6&	c #E1BD2B",
"7&	c #E1BD2C",
"8&	c #E7C330",
"9&	c #E9C530",
"0&	c #E7C32F",
"a&	c #E1BC2B",
"b&	c #D2B453",
"c&	c #B09F72",
"d&	c #252524",
"e&	c #6C6B69",
"f&	c #B4B2AF",
"g&	c #A5A094",
"h&	c #BBAA7E",
"i&	c #C8AA46",
"j&	c #D1AF2A",
"k&	c #D3B126",
"l&	c #D7B326",
"m&	c #DAB526",
"n&	c #D1AE2B",
"o&	c #C9AB48",
"p&	c #BDAC81",
"q&	c #A4A095",
"r&	c #090807",
"s&	c #262625",
"t&	c #535252",
"u&	c #66645F",
"v&	c #B5AFA0",
"w&	c #B49F69",
"x&	c #C5A954",
"y&	c #CAAB47",
"z&	c #C9A82A",
"A&	c #C9A825",
"B&	c #CAA935",
"C&	c #CAAC49",
"D&	c #C5A955",
"E&	c #B6A26E",
"F&	c #BEB9AC",
"G&	c #6A6864",
"H&	c #070606",
"I&	c #131212",
"J&	c #282625",
"K&	c #595650",
"L&	c #756C57",
"M&	c #CDC0A6",
"N&	c #D1BE96",
"O&	c #BB9F49",
"P&	c #B39737",
"Q&	c #C3AB6A",
"R&	c #D2C29B",
"S&	c #CDC0A7",
"T&	c #766C59",
"U&	c #5E5C57",
"V&	c #2A2928",
"W&	c #141313",
"                        . + @ # $ % & * = - ; > , ' ) ! ~                       ",
"                      { ] ^ / ( _ : < [ } [ | 1 2 3 4 5 6 7                     ",
"                    8 9 0 a b c d e f g h i j k l m n o p q 8                   ",
"                    r s t u v w x y z A B C D E F G H I J K L                   ",
"                  M N O P Q R S T U V W X W Y Z `  ...+.@.#.$.                  ",
"                  %.&.*.=.-.;.>.,.'.).!.~.{.].^./.(._.:.<.[.}.|.                ",
"                  1.2.3.4.5.6.7.8.9.0.a.b.c.d.e.f.g.h.i.j.k.l.m.                ",
"                  n.o.p.q.r.s.t.u.v.w.x.y.x.z.A.B.C.D.E.F.G.H.I.                ",
"                  J.K.L.M.N.O.P.Q.R.S.T.U.T.V.W.X.Y.Z.`. +.+++J.                ",
"                  1.@+#+$+%+&+*+=+-+;+>+,+>+'+)+!+~+{+]+$+#+@+1.                ",
"                  ^+/+(+_+:+<+[+}+|+1+2+3+2+4+|+5+6+7+8+9+0+a+1.                ",
"                  b+c+d+e+f+g+h+i+j+k+l+m+n+o+j+i+p+q+r+s+t+u+v+                ",
"                  |.w+x+y+z+A+B+C+D+E+F+G+F+H+I+J+K+L+z+M+N+O+|.                ",
"                    P+Q+R+S+T+U+V+H+W+X+Y+Z+W+H+V+`+ @.@+@@@#@                  ",
"                    $@%@&@*@=@-@;@>@,@'@)@'@,@!@~@{@X.]@^@/@$@                  ",
"                    (@_@:@<@[@}@|@1@2@3@4@)@5@6@7@8@9@0@a@_@(@                  ",
"                    (@b@c@d@e@f@g@h@i@j@k@l@m@n@g@o@p@q@c@b@(@                  ",
"                    (@b@c@r@s@t@u@v@w@x@y@>@z@A@B@C@D@E@c@F@(@                  ",
"                    (@_@:@G@H@I@J@K@L@M@N@O@P@K@Q@R@S@T@U@V@(@                  ",
"                  8 W@X@Y@Z@`@ #.#+#@###$###%#&#*#=#-#;#>#,#'#8                 ",
"                8 )#!#~#{#]#^#/#(#_#:#<#[#}#|#1#2#3#4#5#6#7#!#)#8               ",
"                8#9#0#a#b#c#d#e#f#g#h#i#j#k#l#m#n#o#p#q#r#a#0#9#8#              ",
"                s#t#u#v#w#x#y#z#A#B#C#D#E#F#G#H#I#J#K#L#M#N#u#t#s#              ",
"                O#P#Q#R#S#T#U#V#W#X#W#Y#Z#`# $.$.$+$@$#$$$%$Q#P#O#              ",
"                  O#&$*$=$-$;$>$b.,$'$)$!$!$a.~${$]$^$/$=$($&$O#                ",
"                    _$:$<$[$}$|$1$2$!$3$4$5$c.6$6$7$8$[$9$:$_$                  ",
"                    0$a$b$c$d$e$f$g$h${$i$j$6$k$l$m$n$c$o$a$0$                  ",
"                    p$q$r$s$t$u$v$w$x$y$z$y$A$B$C$D$E$F$r$q$p$                  ",
"                    p$G$H$I$J$K$L$M$N$O$P$O$Q$R$S$T$U$V$W$G$p$                  ",
"                    X$Y$Z$`$ %.%+%@%#%$%%%$%&%*%+%=%-%;%Z$Y$X$                  ",
"                    >%,%'%)%!%~%{%]%^%/%(%_%:%<%[%~%}%|%1%2%3%                  ",
"                    4%5%6%7%8%9%0%a%b%c%d%c%e%f%0%9%g%h%i%j%4%                  ",
"                    k%l%m%n%o%p%q%r%s%t%u%v%w%x%y%z%A%B%C%D%E%                  ",
"                    E%F%G%H%I%J%K%L%M%N%O%P%Q%R%S%T%U%V%W%X%E%                  ",
"                    E%Y%Z%`% &.&+&@&#&$&%&$&&&*&=&-&;&>&,&Y%E%                  ",
"                    '&)&!&~&{&]&^&/&(&_&:&_&(&<&^&[&}&~&!&)&'&                  ",
"                    |&1&2&6#3&4&5&6&7&8&9&0&6&a&5&b&c&6#2&1&|&                  ",
"                    |.d&e&f&g&h&i&j&k&l&m&l&k&n&o&p&q&f&e&d&|.                  ",
"                      r&s&t&u&v&w&x&y&z&A&B&C&D&E&F&G&t&s&r&                    ",
"                        H&I&J&K&L&M&N&O&P&Q&R&S&T&U&V&W&H&                      "};
