/* XPM */
static char * play_left_xpm[] = {
"40 40 755 2",
"  	c #040303",
". 	c #050404",
"+ 	c #050403",
"@ 	c #0A0908",
"# 	c #161514",
"$ 	c #141312",
"% 	c #080707",
"& 	c #0B0A08",
"* 	c #272623",
"= 	c #4E4C47",
"- 	c #4A4945",
"; 	c #242321",
"> 	c #060504",
", 	c #0B0A09",
"' 	c #191816",
") 	c #1E1C19",
"! 	c #1F1D1A",
"~ 	c #201E1A",
"{ 	c #1F1E1A",
"] 	c #1D1B1A",
"^ 	c #0E0C0B",
"/ 	c #0C0B0B",
"( 	c #1A1917",
"_ 	c #1A1711",
": 	c #1B1607",
"< 	c #1C1705",
"[ 	c #1B1705",
"} 	c #1A1606",
"| 	c #1A1708",
"1 	c #1D1B11",
"2 	c #1F1D14",
"3 	c #1F1C14",
"4 	c #1E1B14",
"5 	c #1D1A14",
"6 	c #26231C",
"7 	c #565247",
"8 	c #9C9788",
"9 	c #98958D",
"0 	c #52504C",
"a 	c #272523",
"b 	c #201F1E",
"c 	c #1F1E1C",
"d 	c #1C1A17",
"e 	c #2F2D27",
"f 	c #58554E",
"g 	c #645F56",
"h 	c #686356",
"i 	c #6A6557",
"j 	c #696458",
"k 	c #666259",
"l 	c #615E58",
"m 	c #383530",
"n 	c #181714",
"o 	c #090807",
"p 	c #121110",
"q 	c #323231",
"r 	c #585652",
"s 	c #5A523E",
"t 	c #5E501F",
"u 	c #605318",
"v 	c #5E5317",
"w 	c #5A5018",
"x 	c #5A5124",
"y 	c #635D3F",
"z 	c #686247",
"A 	c #686147",
"B 	c #655D46",
"C 	c #605845",
"D 	c #625A45",
"E 	c #7C714F",
"F 	c #B9AC80",
"G 	c #C0BBA9",
"H 	c #7E7A71",
"I 	c #66655F",
"J 	c #676662",
"K 	c #686663",
"L 	c #64625E",
"M 	c #58534A",
"N 	c #6C6551",
"O 	c #ACA28D",
"P 	c #C1B59A",
"Q 	c #C9BD9C",
"R 	c #CEC19D",
"S 	c #CBC09E",
"T 	c #C6BBA0",
"U 	c #BDB4A1",
"V 	c #827B69",
"W 	c #4F4B3E",
"X 	c #2B2821",
"Y 	c #110F0C",
"Z 	c #060404",
"` 	c #0F0E0E",
" .	c #343332",
"..	c #74726F",
"+.	c #A8A499",
"@.	c #AF9F74",
"#.	c #BBA142",
"$.	c #C0A938",
"%.	c #BCAB38",
"&.	c #B3A53B",
"*.	c #B0A44D",
"=.	c #C0B578",
"-.	c #C9C085",
";.	c #CABF85",
">.	c #C3B381",
",.	c #B7A77E",
"'.	c #B2A37B",
").	c #AE9F6D",
"!.	c #AA9963",
"~.	c #AEA489",
"{.	c #A7A08E",
"].	c #B5B1A6",
"^.	c #BCB8B1",
"/.	c #BDBAB2",
"(.	c #BBB8B1",
"_.	c #B4B0A8",
":.	c #9D9481",
"<.	c #9C8954",
"[.	c #BCA659",
"}.	c #D4BC61",
"|.	c #E2CB66",
"1.	c #E9D36B",
"2.	c #E7D36D",
"3.	c #E2CC6C",
"4.	c #DBC676",
"5.	c #CDBC85",
"6.	c #A29771",
"7.	c #746C56",
"8.	c #3D392F",
"9.	c #171511",
"0.	c #212020",
"a.	c #5C5B5A",
"b.	c #A8A6A1",
"c.	c #ABA28D",
"d.	c #C5AD63",
"e.	c #E2C546",
"f.	c #ECD64B",
"g.	c #EADE53",
"h.	c #DCD555",
"i.	c #D0C958",
"j.	c #D5CF69",
"k.	c #E6E076",
"l.	c #E4DA70",
"m.	c #D0BD5C",
"n.	c #B7A051",
"o.	c #A69151",
"p.	c #9C894F",
"q.	c #8D7C45",
"r.	c #8C7F57",
"s.	c #928764",
"t.	c #9A9172",
"u.	c #9A9378",
"v.	c #9A937B",
"w.	c #98917A",
"x.	c #948C75",
"y.	c #8B8267",
"z.	c #86794F",
"A.	c #958136",
"B.	c #AF9834",
"C.	c #CAB43F",
"D.	c #DDCD4D",
"E.	c #E9DC57",
"F.	c #EEE35D",
"G.	c #F2E45B",
"H.	c #F3E25C",
"I.	c #F1DD66",
"J.	c #E4D16F",
"K.	c #CDBF8A",
"L.	c #888168",
"M.	c #424035",
"N.	c #383634",
"O.	c #726F68",
"P.	c #A59F8F",
"Q.	c #B5A372",
"R.	c #D9BB4E",
"S.	c #EFD244",
"T.	c #F6E04D",
"U.	c #F4E755",
"V.	c #E6E05A",
"W.	c #DFDC5D",
"X.	c #E4E164",
"Y.	c #E3E068",
"Z.	c #C4C059",
"`.	c #9C9143",
" +	c #867742",
".+	c #817246",
"++	c #807146",
"@+	c #7B6A39",
"#+	c #857334",
"$+	c #A6943F",
"%+	c #B7AA4B",
"&+	c #B6AB53",
"*+	c #AFA858",
"=+	c #AAA35A",
"-+	c #A49D57",
";+	c #9F974F",
">+	c #9B9347",
",+	c #9D9240",
"'+	c #A3963C",
")+	c #AC9D38",
"!+	c #B9A83A",
"~+	c #C9B943",
"{+	c #D7CA4E",
"]+	c #E4D957",
"^+	c #EFE45B",
"/+	c #F5E95C",
"(+	c #F5E861",
"_+	c #ECDE7A",
":+	c #CDC598",
"<+	c #78745E",
"[+	c #67635A",
"}+	c #ACA592",
"|+	c #BCAA7C",
"1+	c #D1B455",
"2+	c #E7C640",
"3+	c #F3D442",
"4+	c #F8E04B",
"5+	c #F9EA55",
"6+	c #F7F15D",
"7+	c #F6F463",
"8+	c #EFEF66",
"9+	c #CCCB5B",
"0+	c #8A8944",
"a+	c #636044",
"b+	c #676359",
"c+	c #6F6C65",
"d+	c #6F6B63",
"e+	c #635D4C",
"f+	c #7D7338",
"g+	c #C6B948",
"h+	c #E9E15F",
"i+	c #EEEA71",
"j+	c #ECEA7D",
"k+	c #EAE882",
"l+	c #E7E581",
"m+	c #E4E27C",
"n+	c #E2DF76",
"o+	c #DFDA6D",
"p+	c #DCD763",
"q+	c #D6CD56",
"r+	c #C7BA47",
"s+	c #C4B340",
"t+	c #C7B53F",
"u+	c #CDBC43",
"v+	c #D7C647",
"w+	c #E3D44E",
"x+	c #EEE056",
"y+	c #EFE364",
"z+	c #DBD27D",
"A+	c #99946D",
"B+	c #857A62",
"C+	c #B49F6A",
"D+	c #C8AB4D",
"E+	c #DCB938",
"F+	c #ECC837",
"G+	c #F7D640",
"H+	c #F8E04A",
"I+	c #F5E654",
"J+	c #F4EE5D",
"K+	c #F5F566",
"L+	c #E6E765",
"M+	c #A5A64C",
"N+	c #5F5F3B",
"O+	c #52524D",
"P+	c #676766",
"Q+	c #737373",
"R+	c #70706F",
"S+	c #626054",
"T+	c #8A8240",
"U+	c #DBD156",
"V+	c #F8F470",
"W+	c #FDFB86",
"X+	c #FDFC95",
"Y+	c #FCFC9D",
"Z+	c #FBFB9F",
"`+	c #FBFA9B",
" @	c #F9F993",
".@	c #F8F88A",
"+@	c #F6F67E",
"@@	c #E8E66E",
"#@	c #B4B052",
"$@	c #999144",
"%@	c #9E9340",
"&@	c #AD9F41",
"*@	c #BFAF44",
"=@	c #D3C34A",
"-@	c #E5D756",
";@	c #ECE062",
">@	c #E6DB7A",
",@	c #D8D1A7",
"'@	c #C7B99A",
")@	c #C5AA5B",
"!@	c #D1AF31",
"~@	c #E0BD2D",
"{@	c #EECB36",
"]@	c #F5D642",
"^@	c #EDD74A",
"/@	c #DACE4F",
"(@	c #D7D259",
"_@	c #E5E469",
":@	c #D5D564",
"<@	c #858544",
"[@	c #4E4E3F",
"}@	c #555554",
"|@	c #6A6A6A",
"1@	c #757575",
"2@	c #727271",
"3@	c #696757",
"4@	c #9B9648",
"5@	c #E7E261",
"6@	c #FCFA7C",
"7@	c #FEFE91",
"8@	c #FFFEA0",
"9@	c #FEFFA9",
"0@	c #FEFEAD",
"a@	c #FEFEAB",
"b@	c #FDFDA3",
"c@	c #FCFC99",
"d@	c #FBFA8C",
"e@	c #EAEA7B",
"f@	c #A9A85E",
"g@	c #706F4D",
"h@	c #635F45",
"i@	c #696343",
"j@	c #766F3C",
"k@	c #958E43",
"l@	c #C8C261",
"m@	c #ECE778",
"n@	c #F0EB85",
"o@	c #E2DE9E",
"p@	c #CEBA8D",
"q@	c #CBAC4D",
"r@	c #D4B22B",
"s@	c #E1BE2D",
"t@	c #EDCC38",
"u@	c #F4D745",
"v@	c #EADA4F",
"w@	c #DDD758",
"x@	c #E0DF64",
"y@	c #E8E86E",
"z@	c #C8C862",
"A@	c #72723F",
"B@	c #4A4A42",
"C@	c #575757",
"D@	c #696969",
"E@	c #6F6E58",
"F@	c #AAA94F",
"G@	c #EDEB69",
"H@	c #FDFC83",
"I@	c #FEFE98",
"J@	c #FDFDA5",
"K@	c #FDFDAF",
"L@	c #FCFCB4",
"M@	c #FCFCB3",
"N@	c #FCFCAD",
"O@	c #FEFDA4",
"P@	c #FCFC97",
"Q@	c #EDED87",
"R@	c #AFAF6B",
"S@	c #757563",
"T@	c #5D5D59",
"U@	c #595955",
"V@	c #525148",
"W@	c #62603F",
"X@	c #A3A15A",
"Y@	c #E3E17D",
"Z@	c #F1F089",
"`@	c #DDDB87",
" #	c #BEA24F",
".#	c #C9A930",
"+#	c #D7B428",
"@#	c #E7C330",
"##	c #F4D33D",
"$#	c #FBE24C",
"%#	c #FAEE58",
"&#	c #F7F463",
"*#	c #F7F76D",
"=#	c #F0F170",
"-#	c #C1C15E",
";#	c #67673B",
">#	c #464641",
",#	c #525251",
"'#	c #606060",
")#	c #6C6C6C",
"!#	c #6D6D6B",
"~#	c #737357",
"{#	c #B5B555",
"]#	c #EFEF6F",
"^#	c #FDFD88",
"/#	c #FEFF9C",
"(#	c #FFFFAB",
"_#	c #FEFFB7",
":#	c #FEFEBC",
"<#	c #FFFFBB",
"[#	c #FFFFB4",
"}#	c #FFFEAA",
"|#	c #FDFD9E",
"1#	c #EEEE8E",
"2#	c #B5B574",
"3#	c #838372",
"4#	c #676767",
"5#	c #5D5D5C",
"6#	c #565545",
"7#	c #8D8C50",
"8#	c #DBD97B",
"9#	c #F1F08C",
"0#	c #DFDF85",
"a#	c #B79B3D",
"b#	c #C9A829",
"c#	c #DAB527",
"d#	c #E9C531",
"e#	c #F6D53E",
"f#	c #FCE54D",
"g#	c #FDF35B",
"h#	c #FDFB66",
"i#	c #FCFC6E",
"j#	c #F2F270",
"k#	c #BDBE5D",
"l#	c #64643A",
"m#	c #444440",
"n#	c #4E4E4E",
"o#	c #5A5A5A",
"p#	c #70706E",
"q#	c #77775A",
"r#	c #B9B958",
"s#	c #F0F071",
"t#	c #FDFD8A",
"u#	c #FEFE9E",
"v#	c #FEFFAD",
"w#	c #FEFEB8",
"x#	c #FFFFBD",
"y#	c #FFFFBC",
"z#	c #FEFFB6",
"A#	c #FFFEAC",
"B#	c #FDFCA0",
"C#	c #EFEF90",
"D#	c #B6B677",
"E#	c #888878",
"F#	c #787877",
"G#	c #727272",
"H#	c #666665",
"I#	c #555549",
"J#	c #86854D",
"K#	c #D7D67A",
"L#	c #F0F08D",
"M#	c #E1E087",
"N#	c #C4AB68",
"O#	c #CBAA3B",
"P#	c #E7C32F",
"Q#	c #F9EE59",
"R#	c #F0F171",
"S#	c #C0C15E",
"T#	c #525252",
"U#	c #5F5F5F",
"V#	c #6A6A68",
"W#	c #717155",
"X#	c #B5B454",
"Y#	c #EFEE6F",
"Z#	c #FEFE9C",
"`#	c #FEFEB7",
" $	c #FEFEB4",
".$	c #FDFC9E",
"+$	c #666666",
"@$	c #5D5D5B",
"#$	c #8D8C51",
"$$	c #DBDA7C",
"%$	c #DFDD85",
"&$	c #D0BE93",
"*$	c #CBAE50",
"=$	c #E1BE2C",
"-$	c #F3D645",
";$	c #E9D951",
">$	c #DBD658",
",$	c #DFDE63",
"'$	c #E7E76E",
")$	c #C7C862",
"!$	c #71713F",
"~$	c #4A4A43",
"{$	c #585858",
"]$	c #646464",
"^$	c #656565",
"/$	c #5F5F5C",
"($	c #68674F",
"_$	c #AAA751",
":$	c #EBE86B",
"<$	c #FCFB83",
"[$	c #FEFD97",
"}$	c #FDFCA5",
"|$	c #FCFCB0",
"1$	c #FCFCB5",
"2$	c #FDFDA4",
"3$	c #FCFB97",
"4$	c #EDEC87",
"5$	c #AFAE6B",
"6$	c #767663",
"7$	c #5A5A56",
"8$	c #535248",
"9$	c #63613F",
"0$	c #A3A25A",
"a$	c #E3E27E",
"b$	c #F1EF88",
"c$	c #DAD780",
"d$	c #C8B99B",
"e$	c #C6AB5C",
"f$	c #D1AF33",
"g$	c #E1BC2D",
"h$	c #EECB37",
"i$	c #F4D543",
"j$	c #EAD550",
"k$	c #D9CE52",
"l$	c #D7D25A",
"m$	c #E4E469",
"n$	c #D4D565",
"o$	c #858645",
"p$	c #4F4F40",
"q$	c #545453",
"r$	c #595959",
"s$	c #515151",
"t$	c #4F4F4D",
"u$	c #666455",
"v$	c #9D9854",
"w$	c #E4DF66",
"x$	c #FAF87C",
"y$	c #FFFF9F",
"z$	c #FFFFA9",
"A$	c #FFFEAE",
"B$	c #FDFC99",
"C$	c #AAA95E",
"D$	c #72714F",
"E$	c #66634C",
"F$	c #6A6545",
"G$	c #76703C",
"H$	c #968F43",
"I$	c #C9C461",
"J$	c #EBE876",
"K$	c #EDE87E",
"L$	c #D6D089",
"M$	c #867B64",
"N$	c #B6A26F",
"O$	c #C9AC50",
"P$	c #ECC838",
"Q$	c #F6D543",
"R$	c #F5DE50",
"S$	c #F4E556",
"T$	c #F5F565",
"U$	c #A6A64C",
"V$	c #60603C",
"W$	c #53524C",
"X$	c #585857",
"Y$	c #535352",
"Z$	c #4F4E4C",
"`$	c #5D5B50",
" %	c #8C854D",
".%	c #D8CF5D",
"+%	c #F6F371",
"@%	c #FCFB86",
"#%	c #FCFC95",
"$%	c #FCFB9F",
"%%	c #FAF993",
"&%	c #F9F98A",
"*%	c #E8E66D",
"=%	c #B4B153",
"-%	c #9A9247",
";%	c #A09447",
">%	c #ADA044",
",%	c #BFB143",
"'%	c #D3C449",
")%	c #E5D755",
"!%	c #EBDF60",
"~%	c #E2D771",
"{%	c #CCC394",
"]%	c #6C6861",
"^%	c #B4AD9C",
"/%	c #BEAC80",
"(%	c #D1B457",
"_%	c #E6C541",
":%	c #F2D345",
"<%	c #F8E957",
"[%	c #EFEF65",
"}%	c #CDCB5B",
"|%	c #8B8A44",
"1%	c #656145",
"2%	c #645F54",
"3%	c #635E54",
"4%	c #5E5744",
"5%	c #7C723C",
"6%	c #C3B74E",
"7%	c #E7E060",
"8%	c #EDEA71",
"9%	c #ECEA7C",
"0%	c #E9E881",
"a%	c #E7E480",
"b%	c #E4E17C",
"c%	c #E2DE75",
"d%	c #DEDA6C",
"e%	c #DBD662",
"f%	c #D5CD55",
"g%	c #C6BA48",
"h%	c #C4B342",
"i%	c #C7B546",
"j%	c #CCBB44",
"k%	c #D6C547",
"l%	c #EDE156",
"m%	c #EEE262",
"n%	c #D6CD76",
"o%	c #928C62",
"p%	c #3B3A38",
"q%	c #75736D",
"r%	c #A59F90",
"s%	c #B5A373",
"t%	c #D8BB4F",
"u%	c #EFD146",
"v%	c #F4DF50",
"w%	c #F3E657",
"x%	c #DFDB5D",
"y%	c #E3E164",
"z%	c #E4E068",
"A%	c #C6C15A",
"B%	c #9E9243",
"C%	c #877740",
"D%	c #807144",
"E%	c #7F6E42",
"F%	c #7B6A36",
"G%	c #857435",
"H%	c #A39141",
"I%	c #B4A74B",
"J%	c #B3AA54",
"K%	c #ADA658",
"L%	c #A9A25A",
"M%	c #A39C56",
"N%	c #9D964E",
"O%	c #9A9246",
"P%	c #9C9140",
"Q%	c #A2953B",
"R%	c #AB9C37",
"S%	c #B8A83A",
"T%	c #CABA44",
"U%	c #D8CB50",
"V%	c #E2D756",
"W%	c #EBE15A",
"X%	c #F4E85C",
"Y%	c #F5E863",
"Z%	c #EBDE7E",
"`%	c #C6C096",
" &	c #726F5C",
".&	c #222121",
"+&	c #5D5C5B",
"@&	c #E2C545",
"#&	c #EBD649",
"$&	c #EADE52",
"%&	c #DDD555",
"&&	c #D0C959",
"*&	c #D5CF6A",
"=&	c #E7E076",
"-&	c #E5DA70",
";&	c #A69251",
">&	c #9C8A4E",
",&	c #8E7C46",
"'&	c #8B7E57",
")&	c #8F8360",
"!&	c #958C6D",
"~&	c #99937B",
"{&	c #98927B",
"]&	c #938D75",
"^&	c #8A8267",
"/&	c #85794F",
"(&	c #948137",
"_&	c #B09936",
":&	c #CAB540",
"<&	c #DECD4D",
"[&	c #EADD56",
"}&	c #F0E35B",
"|&	c #EEE159",
"1&	c #EDDD59",
"2&	c #EFDD66",
"3&	c #E5D376",
"4&	c #CFC494",
"5&	c #86806C",
"6&	c #3F3E36",
"7&	c #BAA141",
"8&	c #C0A832",
"9&	c #BCAA36",
"0&	c #B3A43A",
"a&	c #B0A34D",
"b&	c #CAC085",
"c&	c #C2B381",
"d&	c #AF9F6D",
"e&	c #AB9A63",
"f&	c #ADA388",
"g&	c #A29B89",
"h&	c #AAA69A",
"i&	c #B9B6AE",
"j&	c #B3B0A8",
"k&	c #9D9482",
"l&	c #9C8A57",
"m&	c #BEA860",
"n&	c #D4BC63",
"o&	c #E9D369",
"p&	c #E8D269",
"q&	c #DDC662",
"r&	c #CAB55A",
"s&	c #C8B77F",
"t&	c #A19773",
"u&	c #76705B",
"v&	c #3D3A31",
"w&	c #161512",
"x&	c #615214",
"y&	c #5E5215",
"z&	c #595018",
"A&	c #595124",
"B&	c #625B45",
"C&	c #7C724F",
"D&	c #BAAD80",
"E&	c #7C796F",
"F&	c #615E59",
"G&	c #666461",
"H&	c #63625E",
"I&	c #58544B",
"J&	c #716959",
"K&	c #B3AD9A",
"L&	c #C2B89E",
"M&	c #C9BE9C",
"N&	c #CDC19D",
"O&	c #CBBE9C",
"P&	c #B7AD8E",
"Q&	c #7E7352",
"R&	c #685F47",
"S&	c #4B463A",
"T&	c #2C2923",
"U&	c #110F0D",
"V&	c #1C1605",
"W&	c #1B1605",
"X&	c #1A1605",
"Y&	c #9C9888",
"Z&	c #252422",
"`&	c #1E1E1C",
" *	c #1D1B18",
".*	c #33312C",
"+*	c #5D5B55",
"@*	c #656158",
"#*	c #686357",
"$*	c #6A6457",
"%*	c #696356",
"&*	c #5D594E",
"**	c #343127",
"=*	c #211D16",
"-*	c #14120F",
";*	c #090707",
">*	c #0A0808",
",*	c #0C0B0A",
"'*	c #1C1B19",
")*	c #1E1D1A",
"!*	c #1F1D19",
"~*	c #1B1A16",
"{*	c #0C0B09",
"                                                                                ",
"                                                                                ",
"                                                                                ",
"                                                                                ",
"                                                                                ",
"                                                                                ",
"                                                                                ",
"                                  . .                                           ",
"                              + @ # $ %                 . . . . . . .           ",
"      . . + + + + + . . . . . & * = - ; @ > . . . . . , ' ) ! ~ { ! ] ^ .       ",
"  . / ( _ : < [ } | 1 2 3 4 5 6 7 8 9 0 a b b b b c d e f g h i j k l m n o +   ",
". p q r s t u v w x y z A B C D E F G H I J K K J L M N O P Q R S T U V W X Y Z ",
"`  ...+.@.#.$.%.&.*.=.-.;.>.,.'.).!.~.{.].^././.(._.:.<.[.}.|.1.2.3.4.5.6.7.8.9.",
"0.a.b.c.d.e.f.g.h.i.j.k.l.m.n.o.p.q.r.s.t.u.v.w.x.y.z.A.B.C.D.E.F.G.H.I.J.K.L.M.",
"N.O.P.Q.R.S.T.U.V.W.X.Y.Z.`. +.+++@+#+$+%+&+*+=+-+;+>+,+'+)+!+~+{+]+^+/+(+_+:+<+",
"[+}+|+1+2+3+4+5+6+7+8+9+0+a+b+c+d+e+f+g+h+i+j+k+l+m+n+o+p+q+r+s+t+u+v+w+x+y+z+A+",
"B+C+D+E+F+G+H+I+J+K+L+M+N+O+P+Q+R+S+T+U+V+W+X+Y+Z+`+ @.@+@@@#@$@%@&@*@=@-@;@>@,@",
"'@)@!@~@{@]@^@/@(@_@:@<@[@}@|@1@2@3@4@5@6@7@8@9@0@a@b@c@d@e@f@g@h@i@j@k@l@m@n@o@",
"p@q@r@s@t@u@v@w@x@y@z@A@B@C@D@Q+R+E@F@G@H@I@J@K@L@M@N@O@P@Q@R@S@T@U@V@W@X@Y@Z@`@",
" #.#+#@###$#%#&#*#=#-#;#>#,#'#)#!#~#{#]#^#/#(#_#:#<#[#}#|#1#2#3#!#4#5#6#7#8#9#0#",
"a#b#c#d#e#f#g#h#i#j#k#l#m#n#o#D@p#q#r#s#t#u#v#w#x#y#z#A#B#C#D#E#F#G#H#I#J#K#L#M#",
"N#O#+#P###$#Q#7+*#R#S#;#>#T#U#D@V#W#X#Y#^#Z#a@`#y#<# $}#.$1#2#3#!#+$@$6##$$$9#%$",
"&$*$r@=$t@-$;$>$,$'$)$!$~${$]$^$/$($_$:$<$[$}$|$1$M@N@2$3$4$5$6$/$7$8$9$0$a$b$c$",
"d$e$f$g$h$i$j$k$l$m$n$o$p$q$r$s$t$u$v$w$x$7@y$z$A$a@b@B$d@e@C$D$E$F$G$H$I$J$K$L$",
"M$N$O$E+P$Q$R$S$J+T$L+U$V$W$X$Y$Z$`$ %.%+%@%#%Y+$%`+%%&%+@*%=%-%;%>%,%'%)%!%~%{%",
"]%^%/%(%_%:%R$<%6+7+[%}%|%1%2%k 3%4%5%6%7%8%9%0%a%b%c%d%e%f%g%h%i%j%k%w+l%m%n%o%",
"p%q%r%s%t%u%v%w%V.x%y%z%A%B%C%D%E%F%G%H%I%J%K%L%M%N%O%P%Q%R%S%T%U%V%W%X%Y%Z%`% &",
".&+&b.c.d.@&#&$&%&&&*&=&-&m.n.;&>&,&'&)&!&u.~&{&]&^&/&(&_&:&<&[&}&|&1&2&3&4&5&6&",
"`  ...+.@.7&8&9&0&a&=.b&;.c&,.'.d&e&f&g&h&i&/./.(.j&k&l&m&n&|.o&p&q&r&s&t&u&v&w&",
". p q r s t x&y&z&A&y z A B C B&C&D&G E&F&G&K K J H&I&J&K&L&M&N&O&P&Q&R&S&T&U&. ",
"  . / ( _ : V&W&X&| 1 2 3 4 5 6 7 Y&9 0 Z&b b b b `& *.*+*@*#*$*%*&***=*-*;*+   ",
"      . . + + + + + . . . . . & * = - ; >*> . . . . Z ,*'*)*! ~ !*~*{*> +       ",
"                              + @ # $ %                 . . . . . .             ",
"                                  . .                                           ",
"                                                                                ",
"                                                                                ",
"                                                                                ",
"                                                                                ",
"                                                                                ",
"                                                                                "};
